<svg id="Isolation_Mode" data-name="Isolation Mode" xmlns="http://www.w3.org/2000/svg" viewBox="0 0 384.01 361.94"><defs><style>.cls-1{fill:#489dc7;}</style></defs><title>1</title><path class="cls-1" d="M746.51,330.47V95a21.37,21.37,0,0,0,.74-2.44,49.19,49.19,0,0,1,16-28.54,48.65,48.65,0,0,1,33.17-12.66h17.75c0-6.9-.09-13.26,0-19.62.18-11.38,8.1-19.24,19.45-19.36,6.5-.08,13,0,19.5,0,13.68,0,21,7.37,21,21.1,0,5.83,0,11.66,0,17.62h128.76c0-6.74-.08-13.22,0-19.69.16-11,8-18.84,18.94-19,6.49-.09,13,.32,19.49-.09,13.37-.84,22.23,9,21.59,21.52-.29,5.69,0,11.42,0,17.55,6.14,0,11.85,0,17.56,0,28.25.25,50,22,50,50.34q.09,111,0,221.94a52.74,52.74,0,0,1-1.16,11.14c-5.29,23.74-25,39.32-49.85,39.33q-108.74.06-217.45,0c-22.12,0-44.24.15-66.35-.06a49.39,49.39,0,0,1-46.51-33.91C748.07,337,747.38,333.69,746.51,330.47Zm18-161.62v4.2q0,74.43,0,148.87c0,20.87,13.3,34.18,34.19,34.18h279.73c20.69,0,34.07-13.34,34.07-33.94q0-74.62,0-149.24v-4.07ZM874.13,69.51c0,6.73.06,13.08,0,19.43-.14,11-7.78,19-18.71,19.33-7.49.23-15,.23-22.49,0-10.73-.34-18.45-8.25-18.74-19-.15-5.5,0-11,0-16.5,0-1.07-.15-2.14-.25-3.42-5.92,0-11.53-.07-17.14,0-18.52.27-32.1,13.89-32.2,32.37-.09,15.25,0,30.49,0,45.74,0,1,.14,1.93.22,2.94h347.64c0-17.6.57-35-.18-52.29a29.72,29.72,0,0,0-25.14-27.89c-7.74-1.23-15.84-.22-24.18-.22,0,5.7,0,11.66,0,17.63-.06,12.73-7.89,20.63-20.54,20.69-6.12,0-12.24,0-18.37,0-13.54,0-21.06-7.57-21.09-21.15,0-5.83,0-11.67,0-17.67ZM856,30.33c-6.93,0-13.52.14-20.1-.06C833,30.18,832,31,832.07,34c.14,16.35.06,32.7.06,49.05,0,7.24,0,7.24,7.4,7.24H856Zm165.11,60c6.94,0,13.41-.16,19.87.07,3.17.11,4-1,4-4.05-.12-17.35-.06-34.7-.07-52,0-1.2-.11-2.41-.18-3.74h-23.6Z" transform="translate(-746.51 -12.21)"/><path class="cls-1" d="M850,206.66c8,0,16,0,24,0,6,0,9.83,3.56,9.85,8.89s-3.87,9.05-9.75,9.07q-24,.1-47.91,0c-5.77,0-9.84-4-9.75-9.15s4.14-8.78,10-8.81C834.29,206.63,842.15,206.66,850,206.66Z" transform="translate(-746.51 -12.21)"/><path class="cls-1" d="M1026.61,206.66c8,0,16,0,24,0,5.92,0,10,3.62,10.06,8.79s-4.06,9.16-10.11,9.18q-23.58.08-47.16,0c-6.2,0-10.16-3.64-10.15-9.06s3.91-8.88,10.21-8.91C1011.14,206.63,1018.88,206.66,1026.61,206.66Z" transform="translate(-746.51 -12.21)"/><path class="cls-1" d="M849.91,300.41c-7.73,0-15.47,0-23.2,0-6.14,0-10.27-3.69-10.31-9s4.09-9,10.22-9q23.58,0,47.16,0c6.08,0,9.93,3.42,10,8.71.11,5.45-3.85,9.2-10,9.26C865.88,300.46,857.9,300.41,849.91,300.41Z" transform="translate(-746.51 -12.21)"/><path class="cls-1" d="M1027.08,282.41c7.86,0,15.72,0,23.58,0,5.87,0,9.93,3.71,9.95,8.89s-4,9-9.83,9.07q-24,.11-47.91,0c-5.85,0-9.73-3.84-9.67-9.14s3.92-8.78,9.93-8.82C1011.11,282.38,1019.1,282.41,1027.08,282.41Z" transform="translate(-746.51 -12.21)"/><path class="cls-1" d="M938.58,206.66c7.86,0,15.72,0,23.58,0,6,0,10,3.51,10.07,8.74s-4,9.21-10,9.23q-23.76.08-47.54,0c-5.85,0-9.86-3.8-9.88-9s4-8.92,9.84-9C922.61,206.62,930.59,206.66,938.58,206.66Z" transform="translate(-746.51 -12.21)"/><path class="cls-1" d="M938.67,282.41c7.86,0,15.72,0,23.58,0,6,0,9.91,3.58,10,8.82s-4,9.11-9.74,9.14q-24,.11-47.92,0c-5.81,0-9.83-3.89-9.79-9.08s4-8.84,9.93-8.88C922.7,282.37,930.68,282.41,938.67,282.41Z" transform="translate(-746.51 -12.21)"/></svg>