<svg width="20" height="14" viewBox="0 0 20 14" fill="none" xmlns="http://www.w3.org/2000/svg">
<path d="M12.5007 13.6663C10.6395 13.6663 9.06315 13.0205 7.77148 11.7288C6.47982 10.4372 5.83398 8.86079 5.83398 6.99967C5.83398 5.15245 6.47982 3.57954 7.77148 2.28092C9.06315 0.982313 10.6395 0.333008 12.5007 0.333008C14.3479 0.333008 15.9208 0.982313 17.2194 2.28092C18.518 3.57954 19.1673 5.15245 19.1673 6.99967C19.1673 8.86079 18.518 10.4372 17.2194 11.7288C15.9208 13.0205 14.3479 13.6663 12.5007 13.6663ZM12.5007 11.9997C13.8895 11.9997 15.0701 11.5136 16.0423 10.5413C17.0145 9.56912 17.5006 8.38856 17.5006 6.99967C17.5006 5.61079 17.0145 4.43023 16.0423 3.45801C15.0701 2.48579 13.8895 1.99967 12.5007 1.99967C11.1118 1.99967 9.93121 2.48579 8.95898 3.45801C7.98676 4.43023 7.50065 5.61079 7.50065 6.99967C7.50065 8.38856 7.98676 9.56912 8.95898 10.5413C9.93121 11.5136 11.1118 11.9997 12.5007 11.9997ZM14.3965 10.1038L15.584 8.91634L13.334 6.66634V3.66634H11.6673V7.35384L14.3965 10.1038ZM1.66732 4.49967V2.83301H5.00065V4.49967H1.66732ZM0.833984 7.83301V6.16634H5.00065V7.83301H0.833984ZM1.66732 11.1663V9.49967H5.00065V11.1663H1.66732Z" fill="#3762F6"/>
</svg>
