<svg width="18" height="17" viewBox="0 0 18 17" fill="none" xmlns="http://www.w3.org/2000/svg">
<path d="M8.99984 8.49984C7.854 8.49984 6.8731 8.09185 6.05713 7.27588C5.24116 6.45991 4.83317 5.479 4.83317 4.33317C4.83317 3.18734 5.24116 2.20643 6.05713 1.39046C6.8731 0.57449 7.854 0.166504 8.99984 0.166504C10.1457 0.166504 11.1266 0.57449 11.9425 1.39046C12.7585 2.20643 13.1665 3.18734 13.1665 4.33317C13.1665 5.479 12.7585 6.45991 11.9425 7.27588C11.1266 8.09185 10.1457 8.49984 8.99984 8.49984ZM0.666504 16.8332V13.9165C0.666504 13.3262 0.818414 12.7837 1.12223 12.2889C1.42605 11.7941 1.8297 11.4165 2.33317 11.1561C3.40956 10.6179 4.50331 10.2142 5.61442 9.94515C6.72553 9.67605 7.854 9.5415 8.99984 9.5415C10.1457 9.5415 11.2741 9.67605 12.3853 9.94515C13.4964 10.2142 14.5901 10.6179 15.6665 11.1561C16.17 11.4165 16.5736 11.7941 16.8774 12.2889C17.1813 12.7837 17.3332 13.3262 17.3332 13.9165V16.8332H0.666504ZM2.74984 14.7498H15.2498V13.9165C15.2498 13.7255 15.2021 13.5519 15.1066 13.3957C15.0111 13.2394 14.8853 13.1179 14.729 13.0311C13.7915 12.5623 12.8453 12.2108 11.8905 11.9764C10.9356 11.742 9.97206 11.6248 8.99984 11.6248C8.02762 11.6248 7.06407 11.742 6.10921 11.9764C5.15435 12.2108 4.20817 12.5623 3.27067 13.0311C3.11442 13.1179 2.98855 13.2394 2.89307 13.3957C2.79758 13.5519 2.74984 13.7255 2.74984 13.9165V14.7498ZM8.99984 6.4165C9.57275 6.4165 10.0632 6.21251 10.4712 5.80452C10.8792 5.39654 11.0832 4.90609 11.0832 4.33317C11.0832 3.76025 10.8792 3.2698 10.4712 2.86182C10.0632 2.45383 9.57275 2.24984 8.99984 2.24984C8.42692 2.24984 7.93647 2.45383 7.52848 2.86182C7.1205 3.2698 6.9165 3.76025 6.9165 4.33317C6.9165 4.90609 7.1205 5.39654 7.52848 5.80452C7.93647 6.21251 8.42692 6.4165 8.99984 6.4165Z" fill="#8B8B8B"/>
</svg>
