<svg width="20" height="15" viewBox="0 0 20 15" fill="none" xmlns="http://www.w3.org/2000/svg">
<path d="M3.3335 15C2.63905 15 2.04877 14.7569 1.56266 14.2708C1.07655 13.7847 0.833496 13.1944 0.833496 12.5C0.833496 11.9583 0.989746 11.4722 1.30225 11.0417C1.61475 10.6111 2.01405 10.3125 2.50016 10.1458V4.85417C2.01405 4.6875 1.61475 4.38889 1.30225 3.95833C0.989746 3.52778 0.833496 3.04167 0.833496 2.5C0.833496 1.80556 1.07655 1.21528 1.56266 0.729167C2.04877 0.243056 2.63905 0 3.3335 0C4.02794 0 4.61822 0.243056 5.10433 0.729167C5.59044 1.21528 5.8335 1.80556 5.8335 2.5C5.8335 3.04167 5.67725 3.52778 5.36475 3.95833C5.05225 4.38889 4.65294 4.6875 4.16683 4.85417V6.66667H9.16683V4.85417C8.68072 4.6875 8.28141 4.38889 7.96891 3.95833C7.65641 3.52778 7.50016 3.04167 7.50016 2.5C7.50016 1.80556 7.74322 1.21528 8.22933 0.729167C8.71544 0.243056 9.30572 0 10.0002 0C10.6946 0 11.2849 0.243056 11.771 0.729167C12.2571 1.21528 12.5002 1.80556 12.5002 2.5C12.5002 3.04167 12.3439 3.52778 12.0314 3.95833C11.7189 4.38889 11.3196 4.6875 10.8335 4.85417V6.66667H15.0002C15.2363 6.66667 15.4342 6.58681 15.5939 6.42708C15.7536 6.26736 15.8335 6.06944 15.8335 5.83333V4.85417C15.3474 4.6875 14.9481 4.38889 14.6356 3.95833C14.3231 3.52778 14.1668 3.04167 14.1668 2.5C14.1668 1.80556 14.4099 1.21528 14.896 0.729167C15.3821 0.243056 15.9724 0 16.6668 0C17.3613 0 17.9516 0.243056 18.4377 0.729167C18.9238 1.21528 19.1668 1.80556 19.1668 2.5C19.1668 3.04167 19.0106 3.52778 18.6981 3.95833C18.3856 4.38889 17.9863 4.6875 17.5002 4.85417V5.83333C17.5002 6.52778 17.2571 7.11806 16.771 7.60417C16.2849 8.09028 15.6946 8.33333 15.0002 8.33333H10.8335V10.1458C11.3196 10.3125 11.7189 10.6111 12.0314 11.0417C12.3439 11.4722 12.5002 11.9583 12.5002 12.5C12.5002 13.1944 12.2571 13.7847 11.771 14.2708C11.2849 14.7569 10.6946 15 10.0002 15C9.30572 15 8.71544 14.7569 8.22933 14.2708C7.74322 13.7847 7.50016 13.1944 7.50016 12.5C7.50016 11.9583 7.65641 11.4722 7.96891 11.0417C8.28141 10.6111 8.68072 10.3125 9.16683 10.1458V8.33333H4.16683V10.1458C4.65294 10.3125 5.05225 10.6111 5.36475 11.0417C5.67725 11.4722 5.8335 11.9583 5.8335 12.5C5.8335 13.1944 5.59044 13.7847 5.10433 14.2708C4.61822 14.7569 4.02794 15 3.3335 15ZM3.3335 13.3333C3.56961 13.3333 3.76752 13.2535 3.92725 13.0938C4.08697 12.934 4.16683 12.7361 4.16683 12.5C4.16683 12.2639 4.08697 12.066 3.92725 11.9062C3.76752 11.7465 3.56961 11.6667 3.3335 11.6667C3.09739 11.6667 2.89947 11.7465 2.73975 11.9062C2.58002 12.066 2.50016 12.2639 2.50016 12.5C2.50016 12.7361 2.58002 12.934 2.73975 13.0938C2.89947 13.2535 3.09739 13.3333 3.3335 13.3333ZM3.3335 3.33333C3.56961 3.33333 3.76752 3.25347 3.92725 3.09375C4.08697 2.93403 4.16683 2.73611 4.16683 2.5C4.16683 2.26389 4.08697 2.06597 3.92725 1.90625C3.76752 1.74653 3.56961 1.66667 3.3335 1.66667C3.09739 1.66667 2.89947 1.74653 2.73975 1.90625C2.58002 2.06597 2.50016 2.26389 2.50016 2.5C2.50016 2.73611 2.58002 2.93403 2.73975 3.09375C2.89947 3.25347 3.09739 3.33333 3.3335 3.33333ZM10.0002 13.3333C10.2363 13.3333 10.4342 13.2535 10.5939 13.0938C10.7536 12.934 10.8335 12.7361 10.8335 12.5C10.8335 12.2639 10.7536 12.066 10.5939 11.9062C10.4342 11.7465 10.2363 11.6667 10.0002 11.6667C9.76405 11.6667 9.56614 11.7465 9.40641 11.9062C9.24669 12.066 9.16683 12.2639 9.16683 12.5C9.16683 12.7361 9.24669 12.934 9.40641 13.0938C9.56614 13.2535 9.76405 13.3333 10.0002 13.3333ZM10.0002 3.33333C10.2363 3.33333 10.4342 3.25347 10.5939 3.09375C10.7536 2.93403 10.8335 2.73611 10.8335 2.5C10.8335 2.26389 10.7536 2.06597 10.5939 1.90625C10.4342 1.74653 10.2363 1.66667 10.0002 1.66667C9.76405 1.66667 9.56614 1.74653 9.40641 1.90625C9.24669 2.06597 9.16683 2.26389 9.16683 2.5C9.16683 2.73611 9.24669 2.93403 9.40641 3.09375C9.56614 3.25347 9.76405 3.33333 10.0002 3.33333ZM16.6668 3.33333C16.9029 3.33333 17.1009 3.25347 17.2606 3.09375C17.4203 2.93403 17.5002 2.73611 17.5002 2.5C17.5002 2.26389 17.4203 2.06597 17.2606 1.90625C17.1009 1.74653 16.9029 1.66667 16.6668 1.66667C16.4307 1.66667 16.2328 1.74653 16.0731 1.90625C15.9134 2.06597 15.8335 2.26389 15.8335 2.5C15.8335 2.73611 15.9134 2.93403 16.0731 3.09375C16.2328 3.25347 16.4307 3.33333 16.6668 3.33333Z" fill="#8B8B8B"/>
</svg>
