<svg width="20" height="21" viewBox="0 0 20 21" fill="none" xmlns="http://www.w3.org/2000/svg">
<path id="adjust" d="M10 13.5C10.8333 13.5 11.5417 13.2083 12.125 12.625C12.7083 12.0417 13 11.3333 13 10.5C13 9.66667 12.7083 8.95833 12.125 8.375C11.5417 7.79167 10.8333 7.5 10 7.5C9.16667 7.5 8.45833 7.79167 7.875 8.375C7.29167 8.95833 7 9.66667 7 10.5C7 11.3333 7.29167 12.0417 7.875 12.625C8.45833 13.2083 9.16667 13.5 10 13.5ZM10 20.5C8.61667 20.5 7.31667 20.2375 6.1 19.7125C4.88333 19.1875 3.825 18.475 2.925 17.575C2.025 16.675 1.3125 15.6167 0.7875 14.4C0.2625 13.1833 0 11.8833 0 10.5C0 9.11667 0.2625 7.81667 0.7875 6.6C1.3125 5.38333 2.025 4.325 2.925 3.425C3.825 2.525 4.88333 1.8125 6.1 1.2875C7.31667 0.7625 8.61667 0.5 10 0.5C11.3833 0.5 12.6833 0.7625 13.9 1.2875C15.1167 1.8125 16.175 2.525 17.075 3.425C17.975 4.325 18.6875 5.38333 19.2125 6.6C19.7375 7.81667 20 9.11667 20 10.5C20 11.8833 19.7375 13.1833 19.2125 14.4C18.6875 15.6167 17.975 16.675 17.075 17.575C16.175 18.475 15.1167 19.1875 13.9 19.7125C12.6833 20.2375 11.3833 20.5 10 20.5Z" fill="white"/>
</svg>
