<svg width="24" height="28" viewBox="0 0 24 28" fill="none" xmlns="http://www.w3.org/2000/svg">
<path d="M8.93333 22.9332L7.06667 21.0665L10.1333 17.9998L7.06667 14.9332L8.93333 13.0665L12 16.1332L15.0667 13.0665L16.9333 14.9332L13.8667 17.9998L16.9333 21.0665L15.0667 22.9332L12 19.8665L8.93333 22.9332ZM2.66667 27.3332C1.93333 27.3332 1.30556 27.0721 0.783333 26.5498C0.261111 26.0276 0 25.3998 0 24.6665V5.99984C0 5.2665 0.261111 4.63873 0.783333 4.1165C1.30556 3.59428 1.93333 3.33317 2.66667 3.33317H4V0.666504H6.66667V3.33317H17.3333V0.666504H20V3.33317H21.3333C22.0667 3.33317 22.6944 3.59428 23.2167 4.1165C23.7389 4.63873 24 5.2665 24 5.99984V24.6665C24 25.3998 23.7389 26.0276 23.2167 26.5498C22.6944 27.0721 22.0667 27.3332 21.3333 27.3332H2.66667ZM2.66667 24.6665H21.3333V11.3332H2.66667V24.6665ZM2.66667 8.6665H21.3333V5.99984H2.66667V8.6665Z" fill="#3762F6"/>
</svg>
