<svg width="14" height="14" viewBox="0 0 14 14" fill="none" xmlns="http://www.w3.org/2000/svg">
<path d="M6.16665 13.6668C5.93054 13.6668 5.73262 13.587 5.5729 13.4272C5.41318 13.2675 5.33332 13.0696 5.33332 12.8335V7.8335L0.499986 1.66683C0.291652 1.38905 0.260402 1.09738 0.406236 0.791829C0.552069 0.486274 0.805541 0.333496 1.16665 0.333496H12.8333C13.1944 0.333496 13.4479 0.486274 13.5937 0.791829C13.7396 1.09738 13.7083 1.38905 13.5 1.66683L8.66665 7.8335V12.8335C8.66665 13.0696 8.58679 13.2675 8.42707 13.4272C8.26735 13.587 8.06943 13.6668 7.83332 13.6668H6.16665ZM6.99999 7.25016L11.125 2.00016H2.87499L6.99999 7.25016Z" fill="#1D1B20"/>
</svg>
