<svg width="20" height="20" viewBox="0 0 20 20" fill="none" xmlns="http://www.w3.org/2000/svg">
<mask id="mask0_1509_9813" style="mask-type:alpha" maskUnits="userSpaceOnUse" x="0" y="0" width="20" height="20">
<rect width="20" height="20" fill="#D9D9D9"/>
</mask>
<g mask="url(#mask0_1509_9813)">
<path d="M3.75002 10.104C3.16669 10.104 2.67363 9.90262 2.27085 9.49984C1.86808 9.09706 1.66669 8.604 1.66669 8.02067C1.66669 7.43734 1.86808 6.94428 2.27085 6.5415C2.67363 6.13873 3.16669 5.93734 3.75002 5.93734C4.33335 5.93734 4.82641 6.13873 5.22919 6.5415C5.63196 6.94428 5.83335 7.43734 5.83335 8.02067C5.83335 8.604 5.63196 9.09706 5.22919 9.49984C4.82641 9.90262 4.33335 10.104 3.75002 10.104ZM7.50002 6.77067C6.91669 6.77067 6.42363 6.56928 6.02085 6.1665C5.61808 5.76373 5.41669 5.27067 5.41669 4.68734C5.41669 4.104 5.61808 3.61095 6.02085 3.20817C6.42363 2.80539 6.91669 2.604 7.50002 2.604C8.08335 2.604 8.57641 2.80539 8.97919 3.20817C9.38197 3.61095 9.58335 4.104 9.58335 4.68734C9.58335 5.27067 9.38197 5.76373 8.97919 6.1665C8.57641 6.56928 8.08335 6.77067 7.50002 6.77067ZM12.5 6.77067C11.9167 6.77067 11.4236 6.56928 11.0209 6.1665C10.6181 5.76373 10.4167 5.27067 10.4167 4.68734C10.4167 4.104 10.6181 3.61095 11.0209 3.20817C11.4236 2.80539 11.9167 2.604 12.5 2.604C13.0834 2.604 13.5764 2.80539 13.9792 3.20817C14.382 3.61095 14.5834 4.104 14.5834 4.68734C14.5834 5.27067 14.382 5.76373 13.9792 6.1665C13.5764 6.56928 13.0834 6.77067 12.5 6.77067ZM16.25 10.104C15.6667 10.104 15.1736 9.90262 14.7709 9.49984C14.3681 9.09706 14.1667 8.604 14.1667 8.02067C14.1667 7.43734 14.3681 6.94428 14.7709 6.5415C15.1736 6.13873 15.6667 5.93734 16.25 5.93734C16.8334 5.93734 17.3264 6.13873 17.7292 6.5415C18.132 6.94428 18.3334 7.43734 18.3334 8.02067C18.3334 8.604 18.132 9.09706 17.7292 9.49984C17.3264 9.90262 16.8334 10.104 16.25 10.104ZM5.54169 18.4373C4.91669 18.4373 4.39238 18.1978 3.96877 17.7186C3.54516 17.2394 3.33335 16.6734 3.33335 16.0207C3.33335 15.2984 3.57988 14.6665 4.07294 14.1248C4.56599 13.5832 5.05558 13.0484 5.54169 12.5207C5.94446 12.0901 6.29169 11.6214 6.58335 11.1144C6.87502 10.6075 7.22224 10.1318 7.62502 9.68734C7.93058 9.32623 8.28474 9.02762 8.68752 8.7915C9.0903 8.55539 9.5278 8.43734 10 8.43734C10.4722 8.43734 10.9097 8.54845 11.3125 8.77067C11.7153 8.99289 12.0695 9.28456 12.375 9.64567C12.7639 10.0901 13.1077 10.5693 13.4063 11.0832C13.7049 11.5971 14.0556 12.0762 14.4584 12.5207C14.9445 13.0484 15.434 13.5832 15.9271 14.1248C16.4202 14.6665 16.6667 15.2984 16.6667 16.0207C16.6667 16.6734 16.4549 17.2394 16.0313 17.7186C15.6077 18.1978 15.0834 18.4373 14.4584 18.4373C13.7084 18.4373 12.9653 18.3748 12.2292 18.2498C11.4931 18.1248 10.75 18.0623 10 18.0623C9.25002 18.0623 8.50696 18.1248 7.77085 18.2498C7.03474 18.3748 6.29169 18.4373 5.54169 18.4373Z" fill="#8B8B8B"/>
</g>
</svg>
