<svg width="33" height="20" viewBox="0 0 33 20" fill="none" xmlns="http://www.w3.org/2000/svg">
<mask id="mask0_1509_9808" style="mask-type:alpha" maskUnits="userSpaceOnUse" x="0" y="0" width="20" height="20">
<rect width="20" height="20" fill="#D9D9D9"/>
</mask>
<g mask="url(#mask0_1509_9808)">
<path d="M5.83335 17.4998C5.37502 17.4998 4.98266 17.3366 4.65627 17.0103C4.32988 16.6839 4.16669 16.2915 4.16669 15.8332V6.6665C4.16669 6.20817 4.32988 5.81581 4.65627 5.48942C4.98266 5.16303 5.37502 4.99984 5.83335 4.99984H7.50002V2.9165C7.50002 2.56928 7.62155 2.27414 7.8646 2.03109C8.10766 1.78803 8.4028 1.6665 8.75002 1.6665H11.25C11.5972 1.6665 11.8924 1.78803 12.1354 2.03109C12.3785 2.27414 12.5 2.56928 12.5 2.9165V4.99984H14.1667C14.625 4.99984 15.0174 5.16303 15.3438 5.48942C15.6702 5.81581 15.8334 6.20817 15.8334 6.6665V15.8332C15.8334 16.2915 15.6702 16.6839 15.3438 17.0103C15.0174 17.3366 14.625 17.4998 14.1667 17.4998C14.1667 17.7359 14.0868 17.9339 13.9271 18.0936C13.7674 18.2533 13.5695 18.3332 13.3334 18.3332C13.0972 18.3332 12.8993 18.2533 12.7396 18.0936C12.5799 17.9339 12.5 17.7359 12.5 17.4998H7.50002C7.50002 17.7359 7.42016 17.9339 7.26044 18.0936C7.10071 18.2533 6.9028 18.3332 6.66669 18.3332C6.43058 18.3332 6.23266 18.2533 6.07294 18.0936C5.91322 17.9339 5.83335 17.7359 5.83335 17.4998ZM5.83335 15.8332H14.1667V6.6665H5.83335V15.8332ZM6.66669 14.9998H7.91669V7.49984H6.66669V14.9998ZM9.37502 14.9998H10.625V7.49984H9.37502V14.9998ZM12.0834 14.9998H13.3334V7.49984H12.0834V14.9998ZM8.75002 4.99984H11.25V2.9165H8.75002V4.99984Z" fill="#8B8B8B"/>
</g>
<path d="M31.7741 15H25.1661V13.978L27.7841 11.332C28.2881 10.828 28.7128 10.38 29.0581 9.988C29.4035 9.596 29.6648 9.21333 29.8421 8.84C30.0195 8.45733 30.1081 8.042 30.1081 7.594C30.1081 7.04333 29.9448 6.628 29.6181 6.348C29.2915 6.05867 28.8668 5.914 28.3441 5.914C27.8588 5.914 27.4295 5.998 27.0561 6.166C26.6921 6.334 26.3188 6.56733 25.9361 6.866L25.2781 6.04C25.5395 5.816 25.8241 5.61533 26.1321 5.438C26.4495 5.26067 26.7901 5.12067 27.1541 5.018C27.5275 4.91533 27.9241 4.864 28.3441 4.864C28.9695 4.864 29.5061 4.97133 29.9541 5.186C30.4021 5.40067 30.7475 5.70867 30.9901 6.11C31.2421 6.502 31.3681 6.97333 31.3681 7.524C31.3681 8.04667 31.2608 8.53667 31.0461 8.994C30.8315 9.45133 30.5328 9.904 30.1501 10.352C29.7675 10.7907 29.3195 11.262 28.8061 11.766L26.7201 13.824V13.88H31.7741V15Z" fill="#1D1B20"/>
</svg>
