<svg width="18" height="18" viewBox="0 0 18 18" fill="none" xmlns="http://www.w3.org/2000/svg">
<path d="M8.16663 13.1665H9.83329V8.1665H8.16663V13.1665ZM8.99996 6.49984C9.23607 6.49984 9.43399 6.41998 9.59371 6.26025C9.75343 6.10053 9.83329 5.90262 9.83329 5.6665C9.83329 5.43039 9.75343 5.23248 9.59371 5.07275C9.43399 4.91303 9.23607 4.83317 8.99996 4.83317C8.76385 4.83317 8.56593 4.91303 8.40621 5.07275C8.24649 5.23248 8.16663 5.43039 8.16663 5.6665C8.16663 5.90262 8.24649 6.10053 8.40621 6.26025C8.56593 6.41998 8.76385 6.49984 8.99996 6.49984ZM8.99996 17.3332C7.84718 17.3332 6.76385 17.1144 5.74996 16.6769C4.73607 16.2394 3.85413 15.6457 3.10413 14.8957C2.35413 14.1457 1.76038 13.2637 1.32288 12.2498C0.885376 11.2359 0.666626 10.1526 0.666626 8.99984C0.666626 7.84706 0.885376 6.76373 1.32288 5.74984C1.76038 4.73595 2.35413 3.854 3.10413 3.104C3.85413 2.354 4.73607 1.76025 5.74996 1.32275C6.76385 0.885254 7.84718 0.666504 8.99996 0.666504C10.1527 0.666504 11.2361 0.885254 12.25 1.32275C13.2638 1.76025 14.1458 2.354 14.8958 3.104C15.6458 3.854 16.2395 4.73595 16.677 5.74984C17.1145 6.76373 17.3333 7.84706 17.3333 8.99984C17.3333 10.1526 17.1145 11.2359 16.677 12.2498C16.2395 13.2637 15.6458 14.1457 14.8958 14.8957C14.1458 15.6457 13.2638 16.2394 12.25 16.6769C11.2361 17.1144 10.1527 17.3332 8.99996 17.3332ZM8.99996 15.6665C10.8611 15.6665 12.4375 15.0207 13.7291 13.729C15.0208 12.4373 15.6666 10.8609 15.6666 8.99984C15.6666 7.13873 15.0208 5.56234 13.7291 4.27067C12.4375 2.979 10.8611 2.33317 8.99996 2.33317C7.13885 2.33317 5.56246 2.979 4.27079 4.27067C2.97913 5.56234 2.33329 7.13873 2.33329 8.99984C2.33329 10.8609 2.97913 12.4373 4.27079 13.729C5.56246 15.0207 7.13885 15.6665 8.99996 15.6665Z" fill="white"/>
</svg>
