<svg width="12" height="17" viewBox="0 0 12 17" fill="none" xmlns="http://www.w3.org/2000/svg">
<path d="M1.83317 15.9998C1.37484 15.9998 0.982476 15.8366 0.656087 15.5103C0.329698 15.1839 0.166504 14.7915 0.166504 14.3332V5.1665C0.166504 4.70817 0.329698 4.31581 0.656087 3.98942C0.982476 3.66303 1.37484 3.49984 1.83317 3.49984H3.49984V1.4165C3.49984 1.06928 3.62137 0.774143 3.86442 0.531087C4.10748 0.288032 4.40262 0.166504 4.74984 0.166504H7.24984C7.59706 0.166504 7.8922 0.288032 8.13525 0.531087C8.37831 0.774143 8.49984 1.06928 8.49984 1.4165V3.49984H10.1665C10.6248 3.49984 11.0172 3.66303 11.3436 3.98942C11.67 4.31581 11.8332 4.70817 11.8332 5.1665V14.3332C11.8332 14.7915 11.67 15.1839 11.3436 15.5103C11.0172 15.8366 10.6248 15.9998 10.1665 15.9998C10.1665 16.2359 10.0866 16.4339 9.92692 16.5936C9.7672 16.7533 9.56928 16.8332 9.33317 16.8332C9.09706 16.8332 8.89914 16.7533 8.73942 16.5936C8.5797 16.4339 8.49984 16.2359 8.49984 15.9998H3.49984C3.49984 16.2359 3.41998 16.4339 3.26025 16.5936C3.10053 16.7533 2.90262 16.8332 2.6665 16.8332C2.43039 16.8332 2.23248 16.7533 2.07275 16.5936C1.91303 16.4339 1.83317 16.2359 1.83317 15.9998ZM1.83317 14.3332H10.1665V5.1665H1.83317V14.3332ZM2.6665 13.4998H3.9165V5.99984H2.6665V13.4998ZM5.37484 13.4998H6.62484V5.99984H5.37484V13.4998ZM8.08317 13.4998H9.33317V5.99984H8.08317V13.4998ZM4.74984 3.49984H7.24984V1.4165H4.74984V3.49984Z" fill="#8B8B8B"/>
</svg>
