<svg width="20" height="20" viewBox="0 0 20 20" fill="none" xmlns="http://www.w3.org/2000/svg">
<mask id="mask0_1509_9801" style="mask-type:alpha" maskUnits="userSpaceOnUse" x="0" y="0" width="20" height="20">
<rect width="20" height="20" fill="#D9D9D9"/>
</mask>
<g mask="url(#mask0_1509_9801)">
<path d="M9.99998 10.0002C9.08331 10.0002 8.29859 9.67377 7.64581 9.021C6.99304 8.36822 6.66665 7.5835 6.66665 6.66683C6.66665 5.75016 6.99304 4.96544 7.64581 4.31266C8.29859 3.65989 9.08331 3.3335 9.99998 3.3335C10.9166 3.3335 11.7014 3.65989 12.3541 4.31266C13.0069 4.96544 13.3333 5.75016 13.3333 6.66683C13.3333 7.5835 13.0069 8.36822 12.3541 9.021C11.7014 9.67377 10.9166 10.0002 9.99998 10.0002ZM3.33331 16.6668V14.3335C3.33331 13.8613 3.45484 13.4272 3.6979 13.0314C3.94095 12.6356 4.26387 12.3335 4.66665 12.1252C5.52776 11.6946 6.40276 11.3717 7.29165 11.1564C8.18054 10.9411 9.08331 10.8335 9.99998 10.8335C10.9166 10.8335 11.8194 10.9411 12.7083 11.1564C13.5972 11.3717 14.4722 11.6946 15.3333 12.1252C15.7361 12.3335 16.059 12.6356 16.3021 13.0314C16.5451 13.4272 16.6666 13.8613 16.6666 14.3335V16.6668H3.33331ZM4.99998 15.0002H15V14.3335C15 14.1807 14.9618 14.0418 14.8854 13.9168C14.809 13.7918 14.7083 13.6946 14.5833 13.6252C13.8333 13.2502 13.0764 12.9689 12.3125 12.7814C11.5486 12.5939 10.7778 12.5002 9.99998 12.5002C9.2222 12.5002 8.45137 12.5939 7.68748 12.7814C6.92359 12.9689 6.16665 13.2502 5.41665 13.6252C5.29165 13.6946 5.19095 13.7918 5.11456 13.9168C5.03817 14.0418 4.99998 14.1807 4.99998 14.3335V15.0002ZM9.99998 8.3335C10.4583 8.3335 10.8507 8.1703 11.1771 7.84391C11.5035 7.51752 11.6666 7.12516 11.6666 6.66683C11.6666 6.2085 11.5035 5.81613 11.1771 5.48975C10.8507 5.16336 10.4583 5.00016 9.99998 5.00016C9.54165 5.00016 9.14929 5.16336 8.8229 5.48975C8.49651 5.81613 8.33331 6.2085 8.33331 6.66683C8.33331 7.12516 8.49651 7.51752 8.8229 7.84391C9.14929 8.1703 9.54165 8.3335 9.99998 8.3335Z" fill="#8B8B8B"/>
</g>
</svg>
