<svg width="18" height="16" viewBox="0 0 18 16" fill="none" xmlns="http://www.w3.org/2000/svg">
<path d="M2.74984 7.604C2.1665 7.604 1.67345 7.40262 1.27067 6.99984C0.867893 6.59706 0.666504 6.104 0.666504 5.52067C0.666504 4.93734 0.867893 4.44428 1.27067 4.0415C1.67345 3.63873 2.1665 3.43734 2.74984 3.43734C3.33317 3.43734 3.82623 3.63873 4.229 4.0415C4.63178 4.44428 4.83317 4.93734 4.83317 5.52067C4.83317 6.104 4.63178 6.59706 4.229 6.99984C3.82623 7.40262 3.33317 7.604 2.74984 7.604ZM6.49984 4.27067C5.9165 4.27067 5.42345 4.06928 5.02067 3.6665C4.61789 3.26373 4.4165 2.77067 4.4165 2.18734C4.4165 1.604 4.61789 1.11095 5.02067 0.708171C5.42345 0.305393 5.9165 0.104004 6.49984 0.104004C7.08317 0.104004 7.57623 0.305393 7.979 0.708171C8.38178 1.11095 8.58317 1.604 8.58317 2.18734C8.58317 2.77067 8.38178 3.26373 7.979 3.6665C7.57623 4.06928 7.08317 4.27067 6.49984 4.27067ZM11.4998 4.27067C10.9165 4.27067 10.4234 4.06928 10.0207 3.6665C9.61789 3.26373 9.4165 2.77067 9.4165 2.18734C9.4165 1.604 9.61789 1.11095 10.0207 0.708171C10.4234 0.305393 10.9165 0.104004 11.4998 0.104004C12.0832 0.104004 12.5762 0.305393 12.979 0.708171C13.3818 1.11095 13.5832 1.604 13.5832 2.18734C13.5832 2.77067 13.3818 3.26373 12.979 3.6665C12.5762 4.06928 12.0832 4.27067 11.4998 4.27067ZM15.2498 7.604C14.6665 7.604 14.1734 7.40262 13.7707 6.99984C13.3679 6.59706 13.1665 6.104 13.1665 5.52067C13.1665 4.93734 13.3679 4.44428 13.7707 4.0415C14.1734 3.63873 14.6665 3.43734 15.2498 3.43734C15.8332 3.43734 16.3262 3.63873 16.729 4.0415C17.1318 4.44428 17.3332 4.93734 17.3332 5.52067C17.3332 6.104 17.1318 6.59706 16.729 6.99984C16.3262 7.40262 15.8332 7.604 15.2498 7.604ZM4.5415 15.9373C3.9165 15.9373 3.3922 15.6978 2.96859 15.2186C2.54498 14.7394 2.33317 14.1734 2.33317 13.5207C2.33317 12.7984 2.5797 12.1665 3.07275 11.6248C3.56581 11.0832 4.05539 10.5484 4.5415 10.0207C4.94428 9.59012 5.2915 9.12137 5.58317 8.61442C5.87484 8.10748 6.22206 7.63178 6.62484 7.18734C6.93039 6.82623 7.28456 6.52762 7.68734 6.2915C8.09012 6.05539 8.52762 5.93734 8.99984 5.93734C9.47206 5.93734 9.90956 6.04845 10.3123 6.27067C10.7151 6.49289 11.0693 6.78456 11.3748 7.14567C11.7637 7.59011 12.1075 8.06928 12.4061 8.58317C12.7047 9.09706 13.0554 9.57623 13.4582 10.0207C13.9443 10.5484 14.4339 11.0832 14.9269 11.6248C15.42 12.1665 15.6665 12.7984 15.6665 13.5207C15.6665 14.1734 15.4547 14.7394 15.0311 15.2186C14.6075 15.6978 14.0832 15.9373 13.4582 15.9373C12.7082 15.9373 11.9651 15.8748 11.229 15.7498C10.4929 15.6248 9.74984 15.5623 8.99984 15.5623C8.24984 15.5623 7.50678 15.6248 6.77067 15.7498C6.03456 15.8748 5.2915 15.9373 4.5415 15.9373Z" fill="#8B8B8B"/>
</svg>
