<svg width="30" height="26" viewBox="0 0 30 26" fill="none" xmlns="http://www.w3.org/2000/svg">
<path d="M23.3334 8.6665C22.9556 8.6665 22.639 8.53873 22.3834 8.28317C22.1279 8.02762 22.0001 7.71095 22.0001 7.33317C22.0001 7.15539 22.039 6.98317 22.1167 6.8165C22.1945 6.64984 22.289 6.51095 22.4001 6.39984C22.6667 6.13317 23.2779 5.83317 24.2334 5.49984L25.6667 4.99984C25.489 5.51095 25.3223 5.98873 25.1667 6.43317C25.0334 6.81095 24.8834 7.17762 24.7167 7.53317C24.5501 7.88873 24.4001 8.13317 24.2668 8.2665C24.1556 8.37762 24.0168 8.47206 23.8501 8.54984C23.6834 8.62761 23.5112 8.6665 23.3334 8.6665ZM3.33341 25.9998C2.60008 25.9998 1.9723 25.7387 1.45008 25.2165C0.927859 24.6943 0.666748 24.0665 0.666748 23.3332V4.6665C0.666748 3.93317 0.927859 3.30539 1.45008 2.78317C1.9723 2.26095 2.60008 1.99984 3.33341 1.99984H11.3334C12.0667 1.99984 12.6945 2.26095 13.2167 2.78317C13.739 3.30539 14.0001 3.93317 14.0001 4.6665V15.5665C14.2001 15.4998 14.4112 15.4443 14.6334 15.3998C14.8556 15.3554 15.089 15.3332 15.3334 15.3332C16.4445 15.3332 17.389 15.7221 18.1667 16.4998C18.9445 17.2776 19.3334 18.2221 19.3334 19.3332V21.9998C19.3334 22.3776 19.4612 22.6943 19.7167 22.9498C19.9723 23.2054 20.289 23.3332 20.6667 23.3332C21.0445 23.3332 21.3612 23.2054 21.6167 22.9498C21.8723 22.6943 22.0001 22.3776 22.0001 21.9998V15.3332H20.6667V13.4332C19.4667 12.9221 18.5001 12.1221 17.7667 11.0332C17.0334 9.94428 16.6667 8.71095 16.6667 7.33317C16.6667 5.48873 17.3167 3.9165 18.6167 2.6165C19.9167 1.3165 21.489 0.666504 23.3334 0.666504C25.1779 0.666504 26.7501 1.3165 28.0501 2.6165C29.3501 3.9165 30.0001 5.48873 30.0001 7.33317C30.0001 8.71095 29.6334 9.94428 28.9001 11.0332C28.1667 12.1221 27.2001 12.9221 26.0001 13.4332V15.3332H24.6667V21.9998C24.6667 23.1109 24.2779 24.0554 23.5001 24.8332C22.7223 25.6109 21.7779 25.9998 20.6667 25.9998C19.5556 25.9998 18.6112 25.6109 17.8334 24.8332C17.0556 24.0554 16.6667 23.1109 16.6667 21.9998V19.3332C16.6667 18.9554 16.539 18.6387 16.2834 18.3832C16.0279 18.1276 15.7112 17.9998 15.3334 17.9998C14.9556 17.9998 14.639 18.1276 14.3834 18.3832C14.1279 18.6387 14.0001 18.9554 14.0001 19.3332V23.3332C14.0001 24.0665 13.739 24.6943 13.2167 25.2165C12.6945 25.7387 12.0667 25.9998 11.3334 25.9998H3.33341ZM23.3334 11.3332C24.4445 11.3332 25.389 10.9443 26.1667 10.1665C26.9445 9.38873 27.3334 8.44428 27.3334 7.33317C27.3334 6.22206 26.9445 5.27762 26.1667 4.49984C25.389 3.72206 24.4445 3.33317 23.3334 3.33317C22.2223 3.33317 21.2779 3.72206 20.5001 4.49984C19.7223 5.27762 19.3334 6.22206 19.3334 7.33317C19.3334 8.44428 19.7223 9.38873 20.5001 10.1665C21.2779 10.9443 22.2223 11.3332 23.3334 11.3332ZM3.33341 23.3332H11.3334V20.6665L8.66675 23.3332V19.5665L11.3334 16.8998V13.9998L8.66675 16.6665V12.8998L11.3334 10.2332V7.33317L8.66675 9.99984V6.23317L10.2334 4.6665H4.43341L6.00008 6.23317V9.99984L3.33341 7.33317V10.2332L6.00008 12.8998V16.6665L3.33341 13.9998V16.8998L6.00008 19.5665V23.3332L3.33341 20.6665V23.3332Z" fill="#3762F6"/>
</svg>
