<svg width="20" height="20" viewBox="0 0 20 20" fill="none" xmlns="http://www.w3.org/2000/svg">
<path d="M10 19.5C8.68174 19.5 7.44946 19.2502 6.2981 18.7534C5.13703 18.2524 4.13204 17.5749 3.27855 16.7214C2.42507 15.868 1.74759 14.863 1.24658 13.7019C0.749761 12.5505 0.5 11.3183 0.5 10C0.5 8.68174 0.749761 7.44946 1.24658 6.2981C1.74759 5.13703 2.42507 4.13204 3.27855 3.27855C4.13204 2.42507 5.13703 1.74759 6.2981 1.24658C7.44946 0.749761 8.68174 0.5 10 0.5C11.3183 0.5 12.5505 0.749761 13.7019 1.24658C14.863 1.74759 15.868 2.42507 16.7214 3.27855C17.5749 4.13204 18.2524 5.13703 18.7534 6.2981C19.2502 7.44946 19.5 8.68174 19.5 10C19.5 11.3183 19.2502 12.5505 18.7534 13.7019C18.2524 14.863 17.5749 15.868 16.7214 16.7214C15.868 17.5749 14.863 18.2524 13.7019 18.7534C12.5505 19.2502 11.3183 19.5 10 19.5ZM10 18.5C12.3631 18.5 14.3828 17.6743 16.0286 16.0286C17.6743 14.3828 18.5 12.3631 18.5 10C18.5 7.63686 17.6743 5.61718 16.0286 3.97145C14.3828 2.32572 12.3631 1.5 10 1.5C7.63686 1.5 5.61718 2.32572 3.97145 3.97145C2.32572 5.61718 1.5 7.63686 1.5 10C1.5 12.3631 2.32572 14.3828 3.97145 16.0286C5.61718 17.6743 7.63686 18.5 10 18.5Z" fill="white" stroke="#3762F6"/>
</svg>
