<svg width="221" height="142" viewBox="0 0 221 142" fill="none" xmlns="http://www.w3.org/2000/svg">
<path d="M0 8C0 3.58172 3.58172 0 8 0H221V142H8C3.58172 142 0 138.418 0 134V8Z" fill="#D9D9D9"/>
<mask id="mask0_3899_14279" style="mask-type:alpha" maskUnits="userSpaceOnUse" x="75" y="35" width="71" height="72">
<rect x="75" y="35.5" width="71" height="71" fill="#D9D9D9"/>
</mask>
<g mask="url(#mask0_3899_14279)">
<path d="M89.7917 97.625C88.1646 97.625 86.7717 97.0457 85.613 95.887C84.4543 94.7283 83.875 93.3354 83.875 91.7083V50.2917C83.875 48.6646 84.4543 47.2717 85.613 46.113C86.7717 44.9543 88.1646 44.375 89.7917 44.375H131.208C132.835 44.375 134.228 44.9543 135.387 46.113C136.546 47.2717 137.125 48.6646 137.125 50.2917V91.7083C137.125 93.3354 136.546 94.7283 135.387 95.887C134.228 97.0457 132.835 97.625 131.208 97.625H89.7917ZM92.75 85.7917H128.25L117.156 71L108.281 82.8333L101.625 73.9583L92.75 85.7917Z" fill="#A2A2A2"/>
</g>
</svg>
