<svg width="32" height="32" viewBox="0 0 32 32" fill="none" xmlns="http://www.w3.org/2000/svg">
<mask id="mask0_2283_7475" style="mask-type:alpha" maskUnits="userSpaceOnUse" x="0" y="0" width="32" height="32">
<rect width="32" height="32" fill="#D9D9D9"/>
</mask>
<g mask="url(#mask0_2283_7475)">
<path d="M14.6999 28V25.1333C13.5222 24.8667 12.5055 24.3556 11.6499 23.6C10.7944 22.8444 10.1666 21.7778 9.7666 20.4L12.2333 19.4C12.5666 20.4667 13.061 21.2778 13.7166 21.8333C14.3722 22.3889 15.2333 22.6667 16.2999 22.6667C17.211 22.6667 17.9833 22.4611 18.6166 22.05C19.2499 21.6389 19.5666 21 19.5666 20.1333C19.5666 19.3556 19.3222 18.7389 18.8333 18.2833C18.3444 17.8278 17.211 17.3111 15.4333 16.7333C13.5222 16.1333 12.211 15.4167 11.4999 14.5833C10.7888 13.75 10.4333 12.7333 10.4333 11.5333C10.4333 10.0889 10.8999 8.96667 11.8333 8.16667C12.7666 7.36667 13.7222 6.91111 14.6999 6.8V4H17.3666V6.8C18.4777 6.97778 19.3944 7.38333 20.1166 8.01667C20.8388 8.65 21.3666 9.42222 21.6999 10.3333L19.2333 11.4C18.9666 10.6889 18.5888 10.1556 18.0999 9.8C17.611 9.44444 16.9444 9.26667 16.0999 9.26667C15.1222 9.26667 14.3777 9.48333 13.8666 9.91667C13.3555 10.35 13.0999 10.8889 13.0999 11.5333C13.0999 12.2667 13.4333 12.8444 14.0999 13.2667C14.7666 13.6889 15.9222 14.1333 17.5666 14.6C19.0999 15.0444 20.261 15.75 21.0499 16.7167C21.8388 17.6833 22.2333 18.8 22.2333 20.0667C22.2333 21.6444 21.7666 22.8444 20.8333 23.6667C19.8999 24.4889 18.7444 25 17.3666 25.2V28H14.6999Z" fill="#3762F6"/>
</g>
</svg>
