<svg width="32" height="32" viewBox="0 0 32 32" fill="none" xmlns="http://www.w3.org/2000/svg">
<mask id="mask0_2283_7491" style="mask-type:alpha" maskUnits="userSpaceOnUse" x="0" y="0" width="32" height="32">
<rect width="32" height="32" fill="#D9D9D9"/>
</mask>
<g mask="url(#mask0_2283_7491)">
<path d="M12.9333 24.9332L11.0667 23.0665L14.1333 19.9998L11.0667 16.9332L12.9333 15.0665L16 18.1332L19.0667 15.0665L20.9333 16.9332L17.8667 19.9998L20.9333 23.0665L19.0667 24.9332L16 21.8665L12.9333 24.9332ZM6.66667 29.3332C5.93333 29.3332 5.30556 29.0721 4.78333 28.5498C4.26111 28.0276 4 27.3998 4 26.6665V7.99984C4 7.2665 4.26111 6.63873 4.78333 6.1165C5.30556 5.59428 5.93333 5.33317 6.66667 5.33317H8V2.6665H10.6667V5.33317H21.3333V2.6665H24V5.33317H25.3333C26.0667 5.33317 26.6944 5.59428 27.2167 6.1165C27.7389 6.63873 28 7.2665 28 7.99984V26.6665C28 27.3998 27.7389 28.0276 27.2167 28.5498C26.6944 29.0721 26.0667 29.3332 25.3333 29.3332H6.66667ZM6.66667 26.6665H25.3333V13.3332H6.66667V26.6665ZM6.66667 10.6665H25.3333V7.99984H6.66667V10.6665Z" fill="#3762F6"/>
</g>
</svg>
