<svg width="33" height="33" viewBox="0 0 33 33" fill="none" xmlns="http://www.w3.org/2000/svg">
<path d="M14.26 23.86L25.54 12.58L23.3 10.34L14.26 19.38L9.7 14.82L7.46 17.06L14.26 23.86ZM16.5 32.5C14.2867 32.5 12.2067 32.08 10.26 31.24C8.31333 30.4 6.62 29.26 5.18 27.82C3.74 26.38 2.6 24.6867 1.76 22.74C0.92 20.7933 0.5 18.7133 0.5 16.5C0.5 14.2867 0.92 12.2067 1.76 10.26C2.6 8.31333 3.74 6.62 5.18 5.18C6.62 3.74 8.31333 2.6 10.26 1.76C12.2067 0.92 14.2867 0.5 16.5 0.5C18.7133 0.5 20.7933 0.92 22.74 1.76C24.6867 2.6 26.38 3.74 27.82 5.18C29.26 6.62 30.4 8.31333 31.24 10.26C32.08 12.2067 32.5 14.2867 32.5 16.5C32.5 18.7133 32.08 20.7933 31.24 22.74C30.4 24.6867 29.26 26.38 27.82 27.82C26.38 29.26 24.6867 30.4 22.74 31.24C20.7933 32.08 18.7133 32.5 16.5 32.5Z" fill="white"/>
</svg>
