<svg width="120" height="79" viewBox="0 0 120 79" fill="none" xmlns="http://www.w3.org/2000/svg">
<rect width="120" height="79" rx="8" fill="#D8D8D8"/>
<path d="M54.4444 49.75L70 39.5L54.4444 29.25V49.75ZM44.4444 60C43.2222 60 42.1759 59.5539 41.3056 58.6618C40.4352 57.7697 40 56.6972 40 55.4444V23.5556C40 22.3028 40.4352 21.2303 41.3056 20.3382C42.1759 19.4461 43.2222 19 44.4444 19H75.5556C76.7778 19 77.8241 19.4461 78.6944 20.3382C79.5648 21.2303 80 22.3028 80 23.5556V55.4444C80 56.6972 79.5648 57.7697 78.6944 58.6618C77.8241 59.5539 76.7778 60 75.5556 60H44.4444Z" fill="#1B1B1B" fill-opacity="0.3"/>
</svg>
