<svg width="282" height="126" viewBox="0 0 282 126" fill="none" xmlns="http://www.w3.org/2000/svg">
<g clip-path="url(#clip0_1158_22649)">
<path d="M208.51 100.575H106.611" stroke="#C4D1FF" stroke-width="5.66102" stroke-miterlimit="10"/>
<line x1="12.5671" y1="88.4744" x2="40.1646" y2="88.4744" stroke="#C4D1FF" stroke-width="6.36864" stroke-linecap="round"/>
<line x1="231.223" y1="107.58" x2="248.206" y2="107.58" stroke="#C4D1FF" stroke-width="6.36864" stroke-linecap="round"/>
<line x1="203.626" y1="79.9832" x2="231.223" y2="79.9832" stroke="#C4D1FF" stroke-width="6.36864" stroke-linecap="round"/>
<line x1="21.0574" y1="71.4915" x2="38.0404" y2="71.4915" stroke="#C4D1FF" stroke-width="6.36864" stroke-linecap="round"/>
<line x1="6.19799" y1="50.2629" x2="63.5158" y2="50.2629" stroke="#C4D1FF" stroke-width="6.36864" stroke-linecap="round"/>
<line x1="27.4265" y1="79.9832" x2="86.8672" y2="79.9832" stroke="#C4D1FF" stroke-width="6.36864" stroke-linecap="round"/>
<line x1="78.3757" y1="18.4197" x2="118.71" y2="18.4197" stroke="#C4D1FF" stroke-width="6.36864" stroke-linecap="round"/>
<path d="M187.705 89.5361L213.18 89.5361" stroke="#C4D1FF" stroke-width="6.36864" stroke-linecap="round"/>
<line x1="21.0574" y1="39.6482" x2="27.426" y2="39.6482" stroke="#C4D1FF" stroke-width="6.36864" stroke-linecap="round"/>
<line x1="35.9187" y1="101.212" x2="65.639" y2="101.212" stroke="#C4D1FF" stroke-width="6.36864" stroke-linecap="round"/>
<line x1="35.9187" y1="39.6482" x2="82.6221" y2="39.6482" stroke="#C4D1FF" stroke-width="6.36864" stroke-linecap="round"/>
<path d="M177.937 64.9111H162.652" stroke="#C4D1FF" stroke-width="5.66102" stroke-miterlimit="10"/>
<path d="M60.7554 59.8154H45.4707" stroke="#C4D1FF" stroke-width="5.66102" stroke-miterlimit="10"/>
<path d="M251.816 100.574C251.816 111.829 242.693 120.954 231.436 120.954C220.182 120.954 211.057 111.829 211.057 100.574C211.057 89.3198 220.182 80.1948 231.436 80.1948C242.693 80.1948 251.816 89.3198 251.816 100.574Z" stroke="#C4D1FF" stroke-width="5.66102" stroke-miterlimit="10"/>
<path d="M106.609 100.574C106.609 111.829 97.486 120.954 86.2293 120.954C74.9746 120.954 65.8496 111.829 65.8496 100.574C65.8496 89.3198 74.9746 80.1948 86.2293 80.1948C97.486 80.1948 106.609 89.3198 106.609 100.574Z" stroke="#C4D1FF" stroke-width="5.66102" stroke-miterlimit="10"/>
<path d="M152.465 44.5303V13.9608" stroke="#C4D1FF" stroke-width="5.66102" stroke-miterlimit="10" stroke-linejoin="round"/>
<path d="M228.889 44.5303H106.611L119.59 17.9042" stroke="#C4D1FF" stroke-width="5.66102" stroke-miterlimit="10" stroke-linejoin="round"/>
<path d="M65.8496 100.575H60.7547C49.5 100.575 40.375 91.4497 40.375 80.195V70.0052L45.4699 59.8154V49.6256C45.4699 43.9957 50.0314 39.4357 55.6597 39.4357H65.8496L89.3198 18.8981C100.465 9.14644 114.771 3.77133 129.582 3.77133H156.491C170.375 3.77133 183.845 8.49434 194.685 17.171L228.887 44.5306C274.03 52.7691 274.741 64.4874 274.741 64.4874V90.3849C274.741 96.0148 270.18 100.575 264.551 100.575H249.267" stroke="#C4D1FF" stroke-width="5.66102" stroke-miterlimit="10"/>
<path d="M259.459 70.0054H274.744" stroke="#C4D1FF" stroke-width="5.66102" stroke-miterlimit="10" stroke-linejoin="round"/>
<line x1="48.655" y1="31.157" x2="93.2355" y2="31.157" stroke="#C4D1FF" stroke-width="6.36864" stroke-linecap="round"/>
</g>
<defs>
<clipPath id="clip0_1158_22649">
<rect width="280.22" height="125.25" fill="white" transform="translate(0.890625 0.375)"/>
</clipPath>
</defs>
</svg>
