<svg width="34" height="32" viewBox="0 0 34 32" fill="none" xmlns="http://www.w3.org/2000/svg">
<mask id="mask0_2283_7482" style="mask-type:alpha" maskUnits="userSpaceOnUse" x="0" y="0" width="34" height="32">
<rect width="34" height="32" fill="#D9D9D9"/>
</mask>
<g mask="url(#mask0_2283_7482)">
<path d="M25.3337 10.6665C24.9559 10.6665 24.6392 10.5387 24.3837 10.2832C24.1281 10.0276 24.0003 9.71095 24.0003 9.33317C24.0003 9.15539 24.0392 8.98317 24.117 8.8165C24.1948 8.64984 24.2892 8.51095 24.4003 8.39984C24.667 8.13317 25.2781 7.83317 26.2337 7.49984L27.667 6.99984C27.4892 7.51095 27.3225 7.98873 27.167 8.43317C27.0337 8.81095 26.8837 9.17762 26.717 9.53317C26.5503 9.88873 26.4003 10.1332 26.267 10.2665C26.1559 10.3776 26.017 10.4721 25.8503 10.5498C25.6837 10.6276 25.5114 10.6665 25.3337 10.6665ZM5.33366 27.9998C4.60033 27.9998 3.97255 27.7387 3.45033 27.2165C2.9281 26.6943 2.66699 26.0665 2.66699 25.3332V6.6665C2.66699 5.93317 2.9281 5.30539 3.45033 4.78317C3.97255 4.26095 4.60033 3.99984 5.33366 3.99984H13.3337C14.067 3.99984 14.6948 4.26095 15.217 4.78317C15.7392 5.30539 16.0003 5.93317 16.0003 6.6665V17.5665C16.2003 17.4998 16.4114 17.4443 16.6337 17.3998C16.8559 17.3554 17.0892 17.3332 17.3337 17.3332C18.4448 17.3332 19.3892 17.7221 20.167 18.4998C20.9448 19.2776 21.3337 20.2221 21.3337 21.3332V23.9998C21.3337 24.3776 21.4614 24.6943 21.717 24.9498C21.9725 25.2054 22.2892 25.3332 22.667 25.3332C23.0448 25.3332 23.3614 25.2054 23.617 24.9498C23.8725 24.6943 24.0003 24.3776 24.0003 23.9998V17.3332H22.667V15.4332C21.467 14.9221 20.5003 14.1221 19.767 13.0332C19.0337 11.9443 18.667 10.7109 18.667 9.33317C18.667 7.48873 19.317 5.9165 20.617 4.6165C21.917 3.3165 23.4892 2.6665 25.3337 2.6665C27.1781 2.6665 28.7503 3.3165 30.0503 4.6165C31.3503 5.9165 32.0003 7.48873 32.0003 9.33317C32.0003 10.7109 31.6337 11.9443 30.9003 13.0332C30.167 14.1221 29.2003 14.9221 28.0003 15.4332V17.3332H26.667V23.9998C26.667 25.1109 26.2781 26.0554 25.5003 26.8332C24.7225 27.6109 23.7781 27.9998 22.667 27.9998C21.5559 27.9998 20.6114 27.6109 19.8337 26.8332C19.0559 26.0554 18.667 25.1109 18.667 23.9998V21.3332C18.667 20.9554 18.5392 20.6387 18.2837 20.3832C18.0281 20.1276 17.7114 19.9998 17.3337 19.9998C16.9559 19.9998 16.6392 20.1276 16.3837 20.3832C16.1281 20.6387 16.0003 20.9554 16.0003 21.3332V25.3332C16.0003 26.0665 15.7392 26.6943 15.217 27.2165C14.6948 27.7387 14.067 27.9998 13.3337 27.9998H5.33366ZM25.3337 13.3332C26.4448 13.3332 27.3892 12.9443 28.167 12.1665C28.9448 11.3887 29.3337 10.4443 29.3337 9.33317C29.3337 8.22206 28.9448 7.27762 28.167 6.49984C27.3892 5.72206 26.4448 5.33317 25.3337 5.33317C24.2225 5.33317 23.2781 5.72206 22.5003 6.49984C21.7225 7.27762 21.3337 8.22206 21.3337 9.33317C21.3337 10.4443 21.7225 11.3887 22.5003 12.1665C23.2781 12.9443 24.2225 13.3332 25.3337 13.3332ZM5.33366 25.3332H13.3337V22.6665L10.667 25.3332V21.5665L13.3337 18.8998V15.9998L10.667 18.6665V14.8998L13.3337 12.2332V9.33317L10.667 11.9998V8.23317L12.2337 6.6665H6.43366L8.00033 8.23317V11.9998L5.33366 9.33317V12.2332L8.00033 14.8998V18.6665L5.33366 15.9998V18.8998L8.00033 21.5665V25.3332L5.33366 22.6665V25.3332Z" fill="#3762F6"/>
</g>
</svg>
