<svg width="32" height="32" viewBox="0 0 32 32" fill="none" xmlns="http://www.w3.org/2000/svg">
<path d="M16.0013 2.6665C23.3653 2.6665 29.3346 8.63583 29.3346 15.9998C29.3346 23.3638 23.3653 29.3332 16.0013 29.3332C13.645 29.337 11.3302 28.7134 9.29465 27.5265L2.67332 29.3332L4.47599 22.7092C3.28811 20.673 2.66405 18.3572 2.66799 15.9998C2.66799 8.63583 8.63732 2.6665 16.0013 2.6665ZM11.4573 9.73317L11.1906 9.74383C11.018 9.75435 10.8493 9.7997 10.6946 9.87717C10.55 9.95907 10.418 10.0615 10.3026 10.1812C10.1426 10.3318 10.052 10.4625 9.95465 10.5892C9.46148 11.2304 9.19595 12.0176 9.19998 12.8265C9.20265 13.4798 9.37332 14.1158 9.63998 14.7105C10.1853 15.9132 11.0826 17.1865 12.2666 18.3665C12.552 18.6505 12.832 18.9358 13.1333 19.2012C14.6045 20.4964 16.3576 21.4305 18.2533 21.9292L19.0106 22.0452C19.2573 22.0585 19.504 22.0398 19.752 22.0278C20.1403 22.0078 20.5195 21.9026 20.8626 21.7198C21.0372 21.6299 21.2076 21.532 21.3733 21.4265C21.3733 21.4265 21.4306 21.3892 21.54 21.3065C21.72 21.1732 21.8306 21.0785 21.98 20.9225C22.0906 20.8078 22.1866 20.6732 22.26 20.5198C22.364 20.3025 22.468 19.8878 22.5106 19.5425C22.5426 19.2785 22.5333 19.1345 22.5293 19.0452C22.524 18.9025 22.4053 18.7545 22.276 18.6918L21.5 18.3438C21.5 18.3438 20.34 17.8385 19.6306 17.5158C19.5564 17.4834 19.4769 17.4649 19.396 17.4612C19.3047 17.4518 19.2126 17.4621 19.1256 17.4913C19.0387 17.5205 18.959 17.5679 18.892 17.6305C18.8853 17.6278 18.796 17.7038 17.832 18.8718C17.7766 18.9462 17.7004 19.0024 17.613 19.0332C17.5257 19.0641 17.4311 19.0683 17.3413 19.0452C17.2545 19.0219 17.1694 18.9925 17.0866 18.9572C16.9213 18.8878 16.864 18.8612 16.7506 18.8132C15.9854 18.4792 15.2769 18.028 14.6506 17.4758C14.4826 17.3292 14.3266 17.1692 14.1666 17.0145C13.6421 16.5121 13.1849 15.9438 12.8066 15.3238L12.728 15.1972C12.6715 15.1121 12.6258 15.0202 12.592 14.9238C12.5413 14.7278 12.6733 14.5705 12.6733 14.5705C12.6733 14.5705 12.9973 14.2158 13.148 14.0238C13.2946 13.8372 13.4186 13.6558 13.4986 13.5265C13.656 13.2732 13.7053 13.0132 13.6226 12.8118C13.2493 11.8998 12.8626 10.9918 12.4653 10.0905C12.3866 9.91183 12.1533 9.78383 11.9413 9.7585C11.8693 9.7505 11.7973 9.7425 11.7253 9.73717C11.5463 9.72827 11.3668 9.73005 11.188 9.7425L11.4573 9.73317Z" fill="#3762F6"/>
</svg>
