<svg width="32" height="32" viewBox="0 0 32 32" fill="none" xmlns="http://www.w3.org/2000/svg">
<path d="M21.5816 3.01377V4.51703C24.5211 4.88168 26.7909 7.38214 26.7909 10.4184C26.7909 12.8073 25.362 14.8835 23.2783 15.8361L21.5816 14.1394V17.8603H25.3025L24.3946 16.9524C26.7239 15.6798 28.2792 13.2166 28.2792 10.4184C28.2792 6.56354 25.3397 3.38586 21.5816 3.01377ZM20.0932 2.97656C18.642 3.1254 17.2653 3.69098 16.1341 4.62121L17.1909 5.67796C18.0356 5.02678 19.0363 4.60853 20.0932 4.46493V2.97656ZM15.0327 5.71517C14.1099 6.84633 13.5443 8.22307 13.3955 9.67424H14.8839C15.0253 8.61749 15.442 7.61284 16.0969 6.77191L15.0327 5.71517ZM16.3723 7.44168V8.93005H18.6048V9.67424H17.8606C17.042 9.67424 16.3723 10.344 16.3723 11.1626V13.3952H20.0932V11.9068H17.8606V11.1626H18.6048C19.4309 11.1626 20.0932 10.5003 20.0932 9.67424V8.93005C20.0932 8.53531 19.9364 8.15674 19.6572 7.87761C19.3781 7.59849 18.9996 7.44168 18.6048 7.44168H16.3723ZM20.8374 7.44168V11.1626H23.0699V13.3952H24.5583V11.1626H25.3025V9.67424H24.5583V7.44168H23.0699V9.67424H22.3257V7.44168H20.8374ZM13.3955 11.1626C13.5443 12.6138 14.1174 13.9905 15.0476 15.1217L16.1043 14.0649C15.451 13.2207 15.0302 12.2201 14.8839 11.1626H13.3955ZM17.1983 15.1589L16.1341 16.2156C17.2648 17.1388 18.6412 17.7106 20.0932 17.8603V16.3719C19.0377 16.2316 18.0385 15.8129 17.1983 15.1589Z" fill="#3762F6"/>
<path d="M16.6176 23.4269L18.2846 21.7599C18.5091 21.5382 18.7932 21.3864 19.1023 21.323C19.4114 21.2596 19.7323 21.2873 20.026 21.4027L22.0576 22.2139C22.3544 22.3343 22.6089 22.54 22.789 22.8048C22.9691 23.0697 23.0668 23.382 23.0697 23.7023V27.4232C23.068 27.6411 23.0222 27.8563 22.935 28.0561C22.8479 28.2558 22.7213 28.4358 22.5628 28.5853C22.4042 28.7348 22.2171 28.8506 22.0126 28.9259C21.8081 29.0011 21.5905 29.0342 21.3729 29.0232C7.13666 28.1376 4.2641 16.0818 3.72085 11.4678C3.69563 11.2413 3.71867 11.0119 3.78846 10.7949C3.85824 10.5778 3.97319 10.378 4.12574 10.2086C4.27828 10.0392 4.46497 9.90401 4.67352 9.81192C4.88207 9.71983 5.10776 9.67295 5.33573 9.67435H8.93015C9.2509 9.6753 9.56403 9.77218 9.82927 9.95255C10.0945 10.1329 10.2997 10.3885 10.4185 10.6864L11.2297 12.7181C11.3489 13.0106 11.3794 13.3318 11.3172 13.6415C11.255 13.9512 11.1029 14.2357 10.8799 14.4595L9.21294 16.1264C9.21294 16.1264 10.1729 22.6232 16.6176 23.4269Z" fill="#3762F6"/>
</svg>
