<svg width="89" height="79" viewBox="0 0 89 79" fill="none" xmlns="http://www.w3.org/2000/svg">
<path d="M47.2954 21.0752H19.3418V17.8142H47.2954V21.0752Z" fill="#3762F6"/>
<path d="M47.2954 42.2715H19.3418V39.3366H47.2954V42.2715Z" fill="#3762F6"/>
<path d="M47.2954 31.1846H19.3418V27.9235H47.2954V31.1846Z" fill="#3762F6"/>
<path d="M79.3962 17.0575L76.0154 22.3828L73.3878 20.7425L76.7685 15.4172C77.2335 14.6854 78.1915 14.256 79.0443 14.7813C79.7546 15.2248 79.9125 16.2455 79.3962 17.0575ZM52.8764 58.8345C52.3141 59.7182 50.8641 60.6182 49.4891 61.2802C49.4957 59.7638 49.6864 58.0779 50.2488 57.1942L71.75 23.3219L74.378 24.9622L52.8764 58.8345ZM29.1784 60.7226C28.368 57.0947 28.8959 54.5403 32.6874 53.1537C33.497 52.8505 34.4576 53.473 33.5819 54.7419C32.3453 56.5615 30.7901 58.8508 29.1784 60.7226ZM46.628 64.0097C42.773 59.9213 38.8177 60.8488 34.4106 62.8683C32.9636 63.5303 31.5955 64.1662 30.6352 64.0195C30.5826 63.964 36.3838 56.0724 36.3838 56.0724C38.5563 52.8815 35.2634 48.963 31.6218 50.2938C25.8032 52.4331 24.6453 57.5979 26.6925 63.1553C25.9061 63.7521 25.1366 64.1434 24.4164 64.2184C23.9724 64.2673 23.2917 64.2347 22.4267 63.4194C21.8118 62.839 20.8419 62.8618 20.2562 63.4716C19.6709 64.0814 19.6939 65.0467 20.3088 65.6272C21.5388 66.7884 23.0414 67.4458 24.7485 67.2479C25.9259 67.124 27.067 66.612 28.1687 65.8424C30.039 68.1108 33.0251 66.8572 35.6965 65.6337C38.8931 64.1727 41.1754 62.8977 44.7863 66.5305C45.4204 67.1683 47.2594 67.4631 48.098 66.2174C48.5939 65.4354 48.7403 65.272 48.8087 64.8739C49.8443 64.4988 53.9222 62.9075 55.4778 60.4584L57.5365 57.2137V74.7189H9.19319V4.60692H57.5365V39.9923L47.6475 55.5702C45.965 58.2201 46.4126 63.4592 46.628 64.0097ZM60.4962 35.329V2.86879C60.4962 2.02745 59.8089 1.34589 58.9604 1.34589H7.76953C6.92073 1.34589 6.2334 2.02745 6.2334 2.86879V76.1309C6.2334 76.9723 6.92073 77.6538 7.76953 77.6538H58.9604C59.8089 77.6538 60.4962 76.9723 60.4962 76.1309V52.5537L76.8047 26.8601C77.6433 28.1841 77.594 30.1342 76.5449 31.7875L70.1781 41.8152C69.7242 42.5261 69.9413 43.4653 70.6582 43.9153C71.3787 44.3643 72.3252 44.1497 72.7794 43.4359L79.1429 33.4083C81.1293 30.2842 80.7971 26.4166 78.528 24.147L81.9975 18.6815C83.4149 16.4477 82.823 13.5421 80.6294 12.1692C78.429 10.7989 75.5534 11.6149 74.1672 13.7965L60.4962 35.329Z" fill="#3762F6"/>
</svg>
