<svg width="513" height="337" viewBox="0 0 513 337" fill="none" xmlns="http://www.w3.org/2000/svg">
<path d="M461.771 318.314C447.636 320.154 32.7593 312.855 32.7593 312.855C-4.53996 293.717 -6.19382 236.665 8.97717 206.916C24.1173 177.231 55.2274 173.942 53.5736 111.502C50.7046 3.25976 156.761 56.0889 195.09 30.0206C316.121 -52.296 314.827 61.3401 410.263 56.0889C546.184 48.6099 470.78 165.181 499.447 206.916C531.126 253.033 502.619 313.001 461.771 318.316V318.314Z" fill="#DDE7FE"/>
<path d="M251.007 61.8776C251.007 61.8776 251.415 62.0898 252.105 62.434C255.06 63.9117 263.192 67.8336 266.596 68.0026C270.796 68.2128 282.132 52.4263 282.132 52.4263L285.701 54.5675C285.701 54.5675 276.044 74.9354 266.596 74.515C257.149 74.0946 249.094 71.1351 249.094 71.1351L251.009 61.8776H251.007Z" fill="#FF9391"/>
<path d="M228.802 82.8495C228.802 82.8495 225.855 85.607 223.894 111.696L220.671 111.222C220.671 111.222 218.729 88.0327 221.808 78.9297C224.887 69.8267 228.8 82.8516 228.8 82.8516L228.802 82.8495Z" fill="#FF9391"/>
<path d="M239.208 173.018L239.828 165.135L233.902 165.623L234.304 173.853C234.304 173.853 238.003 174.279 239.206 173.02L239.208 173.018Z" fill="white"/>
<path d="M234.239 172.919C234.239 172.919 236.189 173.686 239.208 173.018C239.208 173.018 248.048 176.163 247.931 178.784C247.931 178.784 248.367 179.536 244.401 179.615C240.434 179.693 234.276 179.899 234.105 179.819C233.934 179.738 232.366 178.809 234.239 172.919Z" fill="#010131"/>
<path d="M234.103 179.819C234.274 179.899 240.432 179.693 244.399 179.615C248.366 179.537 247.929 178.784 247.929 178.784C247.937 178.611 247.902 178.436 247.839 178.259L233.355 178.191C233.483 179.462 234.008 179.774 234.103 179.819Z" fill="white"/>
<path d="M262.721 173.018L261.284 164.743L255.453 165.784L257.978 173.434C257.978 173.434 261.519 174.277 262.723 173.018H262.721Z" fill="white"/>
<path d="M257.752 172.919C257.752 172.919 259.703 173.686 262.722 173.018C262.722 173.018 271.562 176.163 271.444 178.784C271.444 178.784 271.881 179.536 267.914 179.615C263.948 179.693 257.789 179.899 257.618 179.819C257.447 179.738 255.88 178.809 257.752 172.919Z" fill="#010131"/>
<path d="M257.617 179.819C257.788 179.899 263.946 179.693 267.913 179.615C271.879 179.536 271.443 178.784 271.443 178.784C271.451 178.611 271.416 178.436 271.352 178.259L256.869 178.191C256.997 179.462 257.522 179.773 257.617 179.819Z" fill="white"/>
<path d="M229.645 80.0816C229.645 80.0816 229.605 90.1347 235.83 102.368L238.713 91.2867C238.713 91.2867 239.687 80.434 239.321 79.6777C238.954 78.9213 236.6 73.0849 235.914 72.6273C235.226 72.1698 232.862 71.1353 232.862 71.1353L229.645 80.0816Z" fill="#FF7367"/>
<path d="M232.426 94.5449C232.426 94.5449 231.191 104.223 231.209 109.072C231.224 112.44 232.69 169.624 232.69 169.624L240.877 169.226L246.009 116.949L254.511 169.621H263.539L254.13 90.1428L232.424 94.5428L232.426 94.5449Z" fill="#4250F0"/>
<path d="M241.05 60.0949C241.05 60.0949 244.141 59.4643 246.811 59.4828C248.736 59.4972 258.55 65.4306 259.879 64.8535L257.22 75.0076L251.181 73.2847L230.494 80.9554L228.268 86.0004C228.268 86.0004 218.298 83.7087 218.419 83.4738C218.539 83.2409 223.166 67.8645 225.533 65.6222C229.051 62.2857 241.052 60.0949 241.052 60.0949H241.05Z" fill="#FF7367"/>
<path d="M250.934 72.345L254.408 91.6824C254.408 91.6824 236.494 109.987 233.59 102.368C230.686 94.7511 234.13 76.5245 234.13 76.5245L250.934 72.345Z" fill="#4250F0"/>
<path d="M242.396 48.7311C242.396 48.7311 242.707 47.8264 243.194 48.0366C244.429 48.5703 243.667 49.8666 243.039 50.2726L242.396 48.7311Z" fill="#FF6868"/>
<path d="M241.89 45.8252H241.884C241.866 45.7469 241.849 45.6645 241.826 45.582C240.891 41.9672 237.094 39.8527 233.491 41.0419C230.49 42.0332 228.62 45.1101 229.125 48.2324C229.312 49.3906 229.788 50.4148 230.46 51.2578C231.421 52.5788 232.26 53.704 233.073 54.6108C234.418 56.1091 235.215 58.0196 235.388 60.0269L235.524 61.6055C239.919 62.6648 241.188 60.2948 241.188 60.2948L240.541 57.5002C240.457 57.1354 240.667 56.7707 241.023 56.6532C241.025 56.6532 241.027 56.6532 241.029 56.6511C245.74 55.0993 242.448 47.985 241.89 45.8252Z" fill="#FF9391"/>
<path d="M236.265 50.8044C236.181 50.4808 235.851 50.2871 235.528 50.3696C235.204 50.4541 235.011 50.7838 235.093 51.1074C235.178 51.4309 235.507 51.6246 235.831 51.5422C236.154 51.4577 236.347 51.128 236.265 50.8044Z" fill="#01011C"/>
<path d="M241.197 48.4157C241.112 48.0922 240.783 47.8985 240.459 47.9809C240.136 48.0654 239.942 48.3951 240.025 48.7187C240.109 49.0422 240.439 49.236 240.762 49.1535C241.086 49.069 241.279 48.7393 241.197 48.4157Z" fill="#01011C"/>
<path d="M233.931 50.4334C233.872 50.4499 233.806 50.4499 233.742 50.4292C233.554 50.3736 233.447 50.1758 233.503 49.9882C233.67 49.4235 234.376 48.4364 235.857 48.7517C236.049 48.7929 236.17 48.9804 236.129 49.1721C236.088 49.3638 235.9 49.4853 235.709 49.4441C234.494 49.1845 234.195 50.1469 234.183 50.1881C234.146 50.3118 234.049 50.4004 233.931 50.4313V50.4334Z" fill="#01011C"/>
<path d="M239.183 48.0985C239.124 48.115 239.058 48.115 238.994 48.0944C238.806 48.0387 238.699 47.8409 238.755 47.6533C238.922 47.0866 239.628 46.1015 241.109 46.4168C241.301 46.458 241.422 46.6456 241.381 46.8372C241.34 47.0289 241.152 47.1505 240.961 47.1093C239.746 46.8496 239.447 47.812 239.435 47.8533C239.398 47.9769 239.301 48.0655 239.183 48.0964V48.0985Z" fill="#01011C"/>
<path d="M228.801 49.4153L231.606 53.23L232.691 52.7065L231.958 47.0391L228.801 49.4153Z" fill="#FF7367"/>
<path d="M232.831 52.5253C232.677 52.3481 232.46 52.2389 232.228 52.2079C231.748 52.144 230.934 52.1523 230.543 52.8138C229.97 53.7866 232.052 55.4332 233.325 54.0174C233.325 54.0174 233.651 53.4651 232.831 52.5233V52.5253Z" fill="#FF9391"/>
<path d="M239.819 52.146C239.329 52.5665 238.75 52.3934 238.744 52.3913C238.689 52.3748 238.658 52.315 238.676 52.2594C238.693 52.2038 238.752 52.1728 238.808 52.1893C238.835 52.1976 239.477 52.3851 239.904 51.7318C239.974 51.6246 240.003 51.5463 239.992 51.4969C239.978 51.4268 239.871 51.3567 239.722 51.2619C239.383 51.0435 238.812 50.6787 238.392 49.6276C238.371 49.574 238.396 49.5122 238.45 49.4916C238.503 49.471 238.565 49.4957 238.586 49.5493C238.981 50.5365 239.494 50.8662 239.834 51.0847C240.017 51.2022 240.163 51.2949 240.196 51.4515C240.221 51.5628 240.184 51.6844 240.077 51.8472C239.996 51.9709 239.908 52.0677 239.817 52.146H239.819Z" fill="#FF6868"/>
<path d="M237.734 53.8257C237.734 53.8257 240.198 53.5022 241.528 52.4058C241.528 52.4058 241.627 54.341 240.278 54.8459C238.929 55.3508 237.734 53.8257 237.734 53.8257Z" fill="white"/>
<path d="M240.248 43.6448C240.248 43.6448 241.315 44.0467 242.524 47.8079C242.524 47.8079 241.453 43.5665 240.858 43.2203C240.262 42.8741 240.248 43.6448 240.248 43.6448Z" fill="#FF7367"/>
<path d="M251.009 72.6253C251.009 72.6253 247.81 62.6464 246.115 59.4644L243.854 59.6643C243.854 59.6643 247.969 69.097 248.434 73.2848L251.006 72.6253H251.009Z" fill="#4250F0"/>
<path d="M234.129 76.5245C234.129 76.5245 232.302 67.1865 229.449 63.345L231.902 62.4341C231.902 62.4341 236.256 71.0466 236.93 76.9037L234.129 76.5224V76.5245Z" fill="#4250F0"/>
<path d="M223.696 111.063C223.696 111.063 224.917 114.913 225.176 116.108C225.438 117.303 226.577 118.27 225.976 118.645C225.374 119.02 224.005 117.106 224.005 117.106C224.005 117.106 223.453 118.744 223.37 119.515C223.288 120.286 222.602 120.438 222.425 119.97C222.223 119.439 222.227 118.69 222.227 118.69C222.227 118.69 222.223 120.228 221.696 120.323C221.168 120.42 220.839 117.895 220.839 117.895C220.839 117.895 220.792 119.581 220.507 119.787C220.223 119.993 219.533 120.18 219.519 118.954C219.504 117.728 219.515 117.522 219.515 117.522C219.515 117.522 219.313 119.055 219.134 119.296C218.954 119.539 218.254 118.995 218.425 117.176C218.596 115.356 219.665 112.551 220.954 110.82L223.698 111.061L223.696 111.063Z" fill="#FF9391"/>
<path d="M233.215 45.4688C234.595 45.7593 236.121 45.8191 237.53 45.7449C237.915 45.7243 238.319 45.6852 238.646 45.4811C238.914 45.3163 239.114 44.9288 238.904 44.6959C238.84 44.6259 238.751 44.5846 238.663 44.5475C238.135 44.3229 237.583 44.1539 237.021 44.0467C238.212 44.0818 239.402 44.0735 240.592 44.0199C241.229 43.9911 241.935 43.919 242.36 43.4429C242.687 43.0761 242.765 42.5279 242.636 42.0538C242.506 41.5798 242.189 41.1718 241.816 40.8523C240.52 39.7436 238.656 39.6467 236.955 39.7415C237.382 39.1439 237.657 38.4411 237.752 37.7156C237.775 37.5343 237.785 37.3344 237.68 37.1839C237.602 37.0706 237.472 37.0026 237.34 36.9552C236.455 36.6378 235.485 37.0727 234.677 37.557C233.695 38.1464 232.758 38.8347 232.01 39.7024C231.262 40.5721 230.713 41.6355 230.577 42.7731C230.64 42.1981 230.704 41.6231 230.766 41.0481C230.799 40.7411 230.818 40.3845 230.591 40.1743C230.369 39.9662 229.99 40.0094 229.755 40.2032C229.518 40.3948 229.399 40.6957 229.326 40.9925C229.112 41.8642 229.228 42.8123 229.65 43.6036C228.416 43.6675 227.308 44.7103 227.168 45.9366C227.586 45.9902 228.014 45.9572 228.42 45.8397C228.138 46.4724 227.959 47.1505 227.895 47.8409C227.864 48.1685 227.86 48.5003 227.934 48.8218C228.074 49.4339 228.513 49.9698 229.083 50.2274C229.654 50.4871 230.346 50.4644 230.898 50.1697C231.724 49.7286 232.14 48.7992 232.5 47.9357C232.838 47.1257 232.875 46.2766 233.213 45.4688H233.215Z" fill="#FF7367"/>
<path d="M290.433 53.1828C290.313 52.3522 288.771 51.8493 288.802 51.0147C288.661 50.553 288.528 50.0873 288.42 49.6153C288.355 49.3247 288.328 49.0383 288.324 48.7559C287.512 49.1805 286.153 49.7349 286.153 49.7349C286.153 49.7349 289.03 47.1278 288.293 46.8311C287.558 46.5322 285.391 48.3067 284.478 49.3289C283.566 50.3531 281.08 53.7351 281.08 53.7351L283.031 56.6265C285.179 56.6533 287.595 55.8331 289.341 54.918C289.131 54.4729 290.501 53.6712 290.433 53.1828Z" fill="#FF9391"/>
<path d="M285.405 41.9231L282.176 42.9692L288.214 61.6312L291.443 60.585L285.405 41.9231Z" fill="#5887DB"/>
<path d="M282.611 35.053L284.252 40.1249L281.905 40.8853L280.28 35.8609C278.902 36.8831 278.261 38.7028 278.817 40.4257C279.515 42.5856 281.832 43.7685 283.989 43.0699C286.147 42.3712 287.329 40.0527 286.631 37.895C286.057 36.1185 284.386 35.0056 282.611 35.055V35.053Z" fill="#5887DB"/>
<path d="M292.671 66.1459L291.029 61.074L288.681 61.8345L290.306 66.8589C288.593 66.8383 287.005 65.7399 286.449 64.019C285.75 61.8592 286.933 59.5427 289.091 58.8441C291.25 58.1454 293.565 59.3284 294.263 61.4882C294.837 63.2647 294.137 65.1463 292.669 66.1479L292.671 66.1459Z" fill="#5887DB"/>
<path d="M288.895 48.3726C288.895 48.3726 285.773 50.2954 285.987 50.7673C286.201 51.2393 288.957 50.3036 288.92 50.3345C288.883 50.3655 286.175 51.8143 286.238 52.5397C286.302 53.2651 289.427 52.0451 289.427 52.0451C289.427 52.0451 286.786 53.2198 286.856 53.7124C286.928 54.2049 289.579 53.3599 289.643 53.5392C289.707 53.7206 287.373 54.277 287.435 54.8932C287.497 55.5095 290.817 54.852 291.066 54.1967C291.313 53.5413 290.714 53.1518 290.714 53.1518C290.714 53.1518 291.01 52.008 290.514 51.5917C290.514 51.5917 290.335 49.9862 289.62 49.9285C289.62 49.9285 290.051 48.5828 288.893 48.3726H288.895Z" fill="#FF7B7B"/>
<path d="M249.724 75.698L236.104 78.0866L237.984 88.8156L245.347 90.7735L251.604 86.425L249.724 75.698Z" fill="#1737E9"/>
<path d="M80.2182 311.156C80.2182 311.156 128.503 270.554 45.7179 199.993C45.7179 199.993 10.0169 306.226 80.2182 311.156Z" fill="#7C9AF2"/>
<path d="M45.6562 199.783L85.3302 305.062C95.1319 291.448 110.068 254.685 45.6562 199.783Z" fill="#91B5F8"/>
<path d="M83.593 300.79C83.6321 300.804 83.6774 300.804 83.7186 300.79C83.8134 300.755 83.8607 300.648 83.8257 300.553L45.8262 199.719C45.7891 199.624 45.6841 199.577 45.5893 199.612C45.4946 199.647 45.4472 199.754 45.4822 199.849L83.4818 300.683C83.5024 300.734 83.5436 300.773 83.5909 300.79H83.593Z" fill="#060633"/>
<path d="M65.4324 252.596C65.5168 252.627 65.6136 252.589 65.6569 252.507C65.7042 252.416 65.6672 252.307 65.5786 252.26L38.9769 238.563C38.8904 238.511 38.7771 238.551 38.7297 238.641C38.6823 238.732 38.7194 238.841 38.808 238.889L65.4097 252.585C65.4097 252.585 65.4241 252.592 65.4324 252.596Z" fill="#060633"/>
<path d="M73.5706 274.194C73.583 274.198 73.5933 274.2 73.6056 274.202C73.7065 274.217 73.7992 274.146 73.8136 274.045L77.9472 244.952C77.9617 244.851 77.8916 244.756 77.7907 244.744C77.6898 244.729 77.5971 244.799 77.5827 244.9L73.4491 273.994C73.4367 274.083 73.4882 274.165 73.5686 274.192L73.5706 274.194Z" fill="#060633"/>
<path d="M62.2342 314.668C62.2342 314.668 83.93 279.672 18.266 252.75C18.266 252.75 17.7016 325.885 62.2342 314.668Z" fill="#91B5F8"/>
<path d="M18.2656 252.752L62.2339 314.67C62.2339 314.67 21.4621 331.885 18.2656 252.752Z" fill="#7C9AF2"/>
<path d="M24.8977 274.626C24.8977 274.626 24.9142 274.639 24.9245 274.643L40.3015 283.037C40.4189 283.101 40.563 283.058 40.6269 282.942C40.6907 282.825 40.6454 282.68 40.5321 282.616L25.1552 274.222C25.0378 274.159 24.8936 274.202 24.8298 274.317C24.7721 274.424 24.803 274.556 24.8998 274.626H24.8977Z" fill="#91B5F8"/>
<path d="M36.0323 299.23C36.0467 299.24 36.0632 299.25 36.0797 299.256L57.4397 308.267C57.5613 308.318 57.7034 308.26 57.7549 308.139C57.8063 308.017 57.7507 307.875 57.6272 307.824L36.2692 298.813C36.1476 298.762 36.0055 298.819 35.954 298.941C35.9108 299.046 35.9458 299.166 36.0344 299.23H36.0323Z" fill="#91B5F8"/>
<path d="M256.499 337C386.845 337 492.511 328.083 492.511 317.083C492.511 306.083 386.845 297.167 256.499 297.167C126.154 297.167 20.4883 306.083 20.4883 317.083C20.4883 328.083 126.154 337 256.499 337Z" fill="#C5DAFF"/>
<path d="M375.22 197.664C375.193 197.658 375.166 197.652 375.139 197.639C374.927 197.551 374.826 197.308 374.915 197.095C397.884 141.61 417.602 102.79 430.444 87.7892C430.728 87.4553 430.934 87.2163 431.016 87.0926C431.144 86.9009 431.401 86.8494 431.593 86.9751C431.784 87.1008 431.838 87.3605 431.71 87.5522C431.599 87.7191 431.401 87.9499 431.074 88.3333C418.29 103.271 398.619 142.009 375.683 197.417C375.607 197.602 375.409 197.703 375.22 197.666V197.664Z" fill="#BDD1F9"/>
<path d="M438.556 85.6377C437.044 87.3153 430.025 89.9635 429.548 89.5307C429.07 89.1 430.977 81.8394 432.489 80.1639C434 78.4864 436.583 78.3545 438.258 79.8651C439.934 81.3778 440.066 83.9622 438.556 85.6377Z" fill="#BDD1F9"/>
<path d="M425.095 89.8398C425.534 92.1068 423.373 99.4766 422.726 99.6023C422.08 99.728 417.328 93.6978 416.889 91.4288C416.451 89.1618 417.932 86.9669 420.199 86.528C422.465 86.089 424.658 87.5708 425.097 89.8398H425.095Z" fill="#BDD1F9"/>
<path d="M431.739 103.78C429.432 103.697 422.745 99.9299 422.768 99.2725C422.792 98.613 429.733 95.3383 432.04 95.4227C434.347 95.5052 436.149 97.4445 436.066 99.7527C435.984 102.061 434.046 103.864 431.739 103.782V103.78Z" fill="#BDD1F9"/>
<path d="M401.631 125.782C402.772 129.485 400.501 142.174 399.444 142.5C398.387 142.826 389.368 133.622 388.225 129.918C387.084 126.215 389.158 122.285 392.861 121.143C396.563 120.001 400.49 122.078 401.631 125.782Z" fill="#BDD1F9"/>
<path d="M415.238 147.842C411.375 148.12 399.532 143.048 399.452 141.944C399.371 140.841 410.365 134.118 414.229 133.84C418.093 133.562 421.452 136.47 421.73 140.336C422.008 144.202 419.102 147.564 415.238 147.842Z" fill="#BDD1F9"/>
<path d="M390.166 139.079C392.526 143.192 393.229 158.952 392.055 159.626C390.881 160.3 377.636 151.745 375.277 147.632C372.917 143.518 374.338 138.267 378.449 135.905C382.56 133.543 387.808 134.965 390.166 139.079Z" fill="#BDD1F9"/>
<path d="M409.877 168.144C405.138 167.997 391.361 160.329 391.402 158.977C391.444 157.623 405.671 150.826 410.408 150.974C415.148 151.121 418.869 155.084 418.721 159.826C418.575 164.568 414.614 168.292 409.875 168.144H409.877Z" fill="#BDD1F9"/>
<path d="M382.082 157.112C384.442 161.225 385.145 176.985 383.971 177.659C382.797 178.333 369.552 169.778 367.193 165.665C364.833 161.551 366.254 156.3 370.365 153.94C374.476 151.578 379.724 152.998 382.082 157.114V157.112Z" fill="#BDD1F9"/>
<path d="M401.793 186.177C397.054 186.03 383.277 178.362 383.318 177.01C383.36 175.656 397.587 168.859 402.324 169.007C407.064 169.154 410.785 173.117 410.637 177.859C410.489 182.601 406.528 186.325 401.791 186.177H401.793Z" fill="#BDD1F9"/>
<path d="M366.118 179.186C369.867 182.09 376.515 196.395 375.685 197.464C374.857 198.536 359.355 195.673 355.606 192.767C351.858 189.864 351.172 184.468 354.076 180.717C356.978 176.966 362.37 176.28 366.118 179.186Z" fill="#BDD1F9"/>
<path d="M394.443 204.08C389.723 204.527 375.095 198.643 374.97 197.295C374.842 195.947 388.108 187.423 392.826 186.978C397.547 186.531 401.734 189.998 402.181 194.721C402.628 199.445 399.164 203.634 394.443 204.082V204.08Z" fill="#BDD1F9"/>
<path d="M417.847 101.037C418.292 103.341 416.098 110.828 415.441 110.954C414.784 111.082 409.956 104.954 409.51 102.65C409.065 100.346 410.57 98.1184 412.871 97.6712C415.173 97.2261 417.4 98.7326 417.847 101.035V101.037Z" fill="#BDD1F9"/>
<path d="M424.282 115.313C421.938 115.228 415.141 111.401 415.166 110.733C415.191 110.063 422.243 106.737 424.587 106.822C426.93 106.906 428.761 108.876 428.677 111.22C428.593 113.565 426.624 115.397 424.282 115.313Z" fill="#BDD1F9"/>
<path d="M409.828 111.304C410.728 114.515 408.491 125.372 407.574 125.627C406.658 125.885 399.109 117.771 398.209 114.562C397.311 111.351 399.182 108.021 402.39 107.12C405.599 106.22 408.928 108.093 409.828 111.304Z" fill="#BDD1F9"/>
<path d="M420.466 131.75C417.138 131.631 407.483 126.194 407.516 125.244C407.551 124.294 417.571 119.566 420.899 119.686C424.227 119.805 426.831 122.604 426.711 125.934C426.592 129.267 423.795 131.87 420.466 131.75Z" fill="#BDD1F9"/>
<path d="M68.8718 316.677C68.8842 316.677 68.8986 316.677 68.913 316.673C69.0222 316.652 69.0942 316.547 69.0736 316.44C63.7784 288.02 58.3555 267.776 53.7997 259.432C53.6988 259.246 53.6246 259.112 53.5999 259.046C53.5587 258.943 53.4434 258.894 53.3404 258.933C53.2374 258.974 53.1859 259.089 53.2271 259.192C53.2621 259.283 53.3321 259.411 53.4495 259.623C57.9848 267.931 63.3933 288.136 68.6803 316.512C68.6988 316.607 68.7812 316.675 68.8739 316.675L68.8718 316.677Z" fill="#4851EC"/>
<path d="M50.1937 257.61C50.7375 258.549 53.7816 260.497 54.0493 260.34C54.3171 260.186 54.142 256.575 53.5962 255.635C53.0525 254.696 51.8476 254.374 50.9084 254.92C49.9692 255.464 49.648 256.67 50.1937 257.61Z" fill="#4851EC"/>
<path d="M56.1142 260.928C55.6817 261.952 55.9659 265.637 56.2584 265.761C56.5508 265.884 59.389 263.518 59.8215 262.494C60.254 261.47 59.7741 260.289 58.7505 259.856C57.7269 259.423 56.5467 259.904 56.1142 260.928Z" fill="#4851EC"/>
<path d="M51.5989 266.832C52.6925 267.024 56.2186 265.915 56.2721 265.604C56.3257 265.291 53.3825 263.057 52.2889 262.867C51.1952 262.675 50.1531 263.409 49.9615 264.506C49.772 265.6 50.5032 266.643 51.5989 266.834V266.832Z" fill="#4851EC"/>
<path d="M63.5867 280.193C62.6804 281.823 62.4889 288.026 62.9523 288.284C63.4178 288.544 68.5812 285.108 69.4874 283.476C70.3936 281.846 69.8066 279.789 68.1775 278.88C66.5484 277.973 64.4929 278.561 63.5846 280.191L63.5867 280.193Z" fill="#4851EC"/>
<path d="M54.984 289.226C56.7759 289.743 62.8579 288.534 63.0062 288.022C63.1545 287.511 58.646 283.249 56.8542 282.734C55.0623 282.217 53.1922 283.254 52.6752 285.046C52.1603 286.839 53.1943 288.711 54.9861 289.228L54.984 289.226Z" fill="#4851EC"/>
<path d="M67.6642 287.598C66.1442 289.3 64.2453 296.651 64.7293 297.086C65.2153 297.521 72.3045 294.811 73.8244 293.109C75.3444 291.406 75.1982 288.793 73.497 287.27C71.7957 285.749 69.1842 285.896 67.6621 287.598H67.6642Z" fill="#4851EC"/>
<path d="M55.4898 299.322C57.7368 299.724 64.9866 297.486 65.1019 296.845C65.2173 296.204 59.193 291.586 56.948 291.182C54.701 290.78 52.5549 292.274 52.1512 294.522C51.7496 296.771 53.2428 298.918 55.4898 299.322Z" fill="#4851EC"/>
<path d="M69.6759 296.895C68.1559 298.597 66.257 305.948 66.741 306.383C67.227 306.818 74.3162 304.108 75.8362 302.406C77.3561 300.703 77.2099 298.09 75.5087 296.567C73.8075 295.046 71.1959 295.192 69.6738 296.895H69.6759Z" fill="#4851EC"/>
<path d="M57.5015 308.619C59.7486 309.021 66.9983 306.785 67.1137 306.142C67.229 305.501 61.2047 300.882 58.9597 300.478C56.7127 300.077 54.5666 301.571 54.1629 303.819C53.7613 306.068 55.2545 308.215 57.5015 308.619Z" fill="#4851EC"/>
<path d="M74.9979 308.881C72.9445 309.876 68.3886 315.95 68.6729 316.535C68.9571 317.122 76.5426 317.318 78.596 316.325C80.6494 315.331 81.5103 312.858 80.5155 310.802C79.5208 308.747 77.0513 307.885 74.9958 308.881H74.9979Z" fill="#4851EC"/>
<path d="M59.1825 317.782C61.3616 318.462 68.8338 317.149 69.0295 316.527C69.2231 315.904 63.8249 310.569 61.6458 309.889C59.4668 309.209 57.1497 310.422 56.47 312.603C55.7904 314.783 57.0035 317.102 59.1825 317.782Z" fill="#4851EC"/>
<path d="M58.4142 266.923C57.9755 267.964 58.2639 271.708 58.5604 271.834C58.857 271.96 61.7405 269.555 62.1792 268.514C62.6179 267.473 62.1318 266.274 61.0917 265.835C60.0516 265.396 58.8529 265.882 58.4142 266.923Z" fill="#4851EC"/>
<path d="M53.9623 273.005C55.0745 273.198 58.6561 272.073 58.7117 271.756C58.7673 271.438 55.7768 269.167 54.6646 268.975C53.5524 268.782 52.4938 269.526 52.3002 270.639C52.1066 271.752 52.8501 272.811 53.9623 273.005Z" fill="#4851EC"/>
<path d="M61.1689 272.559C60.4254 273.982 60.3986 279.317 60.8043 279.529C61.2101 279.742 65.5723 276.673 66.3158 275.251C67.0593 273.829 66.5094 272.073 65.0883 271.329C63.6672 270.585 61.9124 271.135 61.1709 272.557L61.1689 272.559Z" fill="#4851EC"/>
<path d="M54.123 281.127C55.7027 281.401 60.7899 279.804 60.8682 279.352C60.9465 278.901 56.6975 275.676 55.1178 275.401C53.5381 275.125 52.0346 276.185 51.7586 277.765C51.4826 279.346 52.5412 280.85 54.1209 281.127H54.123Z" fill="#4851EC"/>
<path d="M226.923 259.238H186.287V297.983H226.923V259.238Z" fill="#060633"/>
<path d="M98.6126 102.892H317.434C319.554 102.892 321.273 104.612 321.273 106.733V258.368C321.273 260.489 319.554 262.21 317.434 262.21H98.6106C96.4912 262.21 94.7715 260.489 94.7715 258.368V106.733C94.7715 104.612 96.4912 102.892 98.6106 102.892H98.6126Z" fill="#0C0C4C"/>
<path d="M315.278 107.112H100.547V250.207H315.278V107.112Z" fill="#8092FF"/>
<path d="M241.304 294.205H171.91V303.094H241.304V294.205Z" fill="#0C0C4C"/>
<path d="M134.667 297.708C134.667 297.708 133.856 305.727 135.491 306.638C138.455 308.285 143.919 309.857 143.462 311.271C143.004 312.685 129.903 312.741 129.541 311.451C129.176 310.16 130.645 306.214 129.09 298.529L134.667 297.708Z" fill="#F9A58F"/>
<path d="M129.67 308.572C129.53 310.008 129.411 310.993 129.539 311.451C129.903 312.741 143.002 312.685 143.459 311.271C143.799 310.222 140.906 309.039 138.16 307.861C137.511 308.951 136.127 310.651 129.668 308.57L129.67 308.572Z" fill="#2F3DBC"/>
<path d="M110.095 297.48C110.095 297.48 107.931 305.243 109.389 306.418C112.029 308.547 117.147 311.026 116.455 312.341C115.763 313.656 102.846 311.479 102.708 310.146C102.57 308.813 104.687 305.173 104.462 297.335L110.097 297.478L110.095 297.48Z" fill="#F9A58F"/>
<path d="M103.326 307.331C102.945 308.722 102.659 309.672 102.706 310.146C102.844 311.48 115.762 313.658 116.454 312.341C116.967 311.364 114.318 309.707 111.814 308.077C110.988 309.041 109.336 310.482 103.326 307.329V307.331Z" fill="#2F3DBC"/>
<path d="M133.139 226.62C133.139 226.62 136.697 230.933 138.302 235.98C139.906 241.03 135.649 300.841 135.649 300.841H128.539C128.539 300.841 124.768 247.577 124.768 247.103C124.768 245.242 110.769 300.841 110.769 300.841H103.672C103.672 300.841 107.513 235.741 116.427 226.62L124.768 227.137L133.139 226.62Z" fill="#FA7267"/>
<path d="M143.405 200.259C143.445 198.888 142.328 197.784 141.237 196.955C140.145 196.125 138.916 195.271 138.545 193.952C137.978 191.935 139.696 189.779 139.089 187.772C138.605 186.175 136.85 185.332 135.976 183.91C135.173 182.601 135.206 180.958 134.757 179.491C134.407 178.349 133.83 177.42 133.099 176.686C132.345 175.932 131.427 175.384 130.42 175.027C129.392 174.664 128.276 174.502 127.149 174.52C125.957 174.541 124.756 174.768 123.644 175.176C123.403 175.264 123.168 175.359 122.937 175.466C122.56 175.639 122.196 175.833 121.852 176.047C121.543 176.241 121.244 176.453 120.962 176.688C120.233 177.288 119.601 178.013 119.129 178.823C118.68 179.592 118.373 180.439 118.26 181.325C118.064 182.852 118.425 184.61 117.341 185.882C117.026 186.251 116.645 186.513 116.231 186.715C115.935 186.859 115.624 186.972 115.304 187.073C114.653 187.281 113.976 187.438 113.364 187.7C111.943 188.308 110.656 189.565 110.264 191.094C109.929 192.403 110.209 193.899 109.953 195.181C109.855 195.679 109.673 196.147 109.344 196.555C108.501 197.598 107.08 197.806 105.964 198.431C104.716 199.127 103.672 200.226 103.144 201.567C102.222 203.919 103.111 206.903 105.408 208.101C105.593 208.197 105.785 208.282 105.978 208.354C106.048 208.381 106.121 208.406 106.193 208.428C107.146 208.741 108.188 208.801 109.2 208.783C111.686 208.737 114.163 208.255 116.487 207.365C118.766 206.493 120.96 205.217 123.394 205.048C125.505 204.902 127.569 205.603 129.645 206.013C131.404 206.359 133.229 206.503 134.912 207.087C134.959 207.103 135.006 207.12 135.056 207.138C135.282 207.221 135.505 207.311 135.725 207.41C136.572 207.796 137.352 208.319 138.211 208.678C138.347 208.735 138.489 208.789 138.631 208.834C139.381 209.082 140.195 209.166 140.926 208.892C141.797 208.564 142.466 207.6 142.221 206.703C142.11 206.295 141.834 205.951 141.694 205.551C141.581 205.228 141.562 204.91 141.609 204.597C141.817 203.169 143.366 201.819 143.412 200.259H143.405Z" fill="#0C0C4C"/>
<path d="M122.939 196.518C118.848 196.671 111.535 198.501 109.222 203.109C107.943 205.658 106.141 213.947 106.141 213.947L112.346 215.035C112.346 215.035 112.241 218.036 112.647 219.751C113.366 222.791 116.253 229.692 117.705 230.274C119.977 231.183 122.16 230.156 123.524 230.004C124.887 229.853 127.931 228.139 131.566 227.077C135.202 226.016 135.354 223.287 135.809 220.103C136.264 216.919 137.026 215.291 137.026 215.291L138.233 215.099L145.053 208.276C145.053 208.276 137.02 199.636 132.477 198.272C127.931 196.908 122.939 196.516 122.939 196.516V196.518Z" fill="#4851EC"/>
<path d="M133.869 186.263C133.869 186.263 134.549 185.511 134.934 185.917C135.916 186.954 134.536 187.922 133.756 188.056L133.869 186.261V186.263Z" fill="#EA907F"/>
<path d="M128.39 175.052C124.944 174.755 121.768 177.131 121.068 180.521C120.838 181.636 120.891 182.735 121.173 183.753C121.752 186.269 122.238 188.299 122.992 189.837C123.756 191.397 123.943 193.175 123.443 194.841L122.938 196.52C126.6 199.105 128.635 197.386 128.635 197.386L129.237 193.421C133.601 193.561 134.229 185.558 134.585 183.219H134.579C134.596 183.133 134.612 183.044 134.627 182.957C135.22 179.042 132.398 175.396 128.39 175.054V175.052Z" fill="#F9A58F"/>
<path d="M126.848 181.913C125.886 182.636 125.015 183.473 124.148 184.31C123.232 185.194 122.278 186.136 121.918 187.358C120.939 186.35 120.422 184.988 120.017 183.644C119.829 183.02 119.656 182.381 119.662 181.729C119.671 180.806 120.031 179.928 120.385 179.077C120.842 177.979 121.333 176.835 122.243 176.07C122.846 175.563 123.594 175.26 124.35 175.04C126.115 174.524 128.028 174.428 129.789 174.951C131.552 175.477 133.146 176.657 133.997 178.288C135.093 180.388 134.868 182.904 134.617 185.26C134.528 184.252 134.011 183.341 133.505 182.467C133.175 181.898 132.838 181.317 132.339 180.889C131.491 180.157 131.208 180.246 129.732 178.879C129.083 180.256 128.049 181.01 126.844 181.913H126.848Z" fill="#0C0C4C"/>
<path d="M122.96 185.977C122.884 185.74 122.717 185.542 122.503 185.416C122.062 185.154 121.263 184.823 120.606 185.305C119.642 186.016 120.989 188.489 122.82 187.64C122.82 187.64 123.368 187.236 122.96 185.977Z" fill="#F9A58F"/>
<path d="M132.731 186.156C132.811 185.835 132.617 185.507 132.294 185.427C131.973 185.346 131.645 185.54 131.565 185.864C131.485 186.185 131.678 186.513 132.002 186.593C132.323 186.673 132.65 186.48 132.731 186.156Z" fill="#060633"/>
<path d="M127.026 185.934C127.106 185.612 126.912 185.284 126.589 185.204C126.268 185.124 125.94 185.317 125.86 185.639C125.78 185.96 125.973 186.288 126.295 186.368C126.616 186.449 126.943 186.255 127.026 185.934Z" fill="#060633"/>
<path d="M130.782 190.259C130.782 190.259 130.31 189.837 129.995 189.893C129.682 189.948 129.478 190.301 129.478 190.301C129.478 190.301 129.332 189.915 128.959 189.872C128.589 189.831 127.518 190.016 127.518 190.016C127.518 190.016 128.329 191.694 129.468 191.523C130.605 191.352 130.759 190.309 130.759 190.309L130.78 190.257L130.782 190.259Z" fill="#EA6868"/>
<path d="M129.679 190.808C128.377 190.956 127.228 189.897 127.214 189.882C127.181 189.851 127.179 189.796 127.209 189.763C127.24 189.728 127.296 189.728 127.329 189.759C127.405 189.829 129.197 191.479 130.785 190.134C130.82 190.103 130.873 190.107 130.904 190.144C130.935 190.179 130.931 190.233 130.894 190.263C130.494 190.604 130.078 190.764 129.679 190.81V190.808Z" fill="#240D39"/>
<path d="M125.199 184.783C125.129 184.769 125.065 184.724 125.03 184.656C124.964 184.534 125.011 184.382 125.133 184.318C125.17 184.299 126.043 183.846 127.129 184.12C127.262 184.153 127.343 184.289 127.31 184.423C127.277 184.557 127.129 184.637 127.007 184.604C126.103 184.377 125.376 184.755 125.37 184.757C125.316 184.785 125.256 184.792 125.201 184.781L125.199 184.783Z" fill="#060633"/>
<path d="M131.404 184.674C131.338 184.647 131.282 184.592 131.26 184.52C131.218 184.388 131.291 184.248 131.42 184.204C131.459 184.192 132.392 183.899 133.418 184.369C133.544 184.427 133.599 184.575 133.542 184.701C133.484 184.827 133.332 184.882 133.21 184.825C132.359 184.437 131.579 184.68 131.571 184.682C131.513 184.701 131.453 184.697 131.402 184.676L131.404 184.674Z" fill="#060633"/>
<path d="M129.358 188.606C130.077 188.606 130.39 188.114 130.458 187.813C130.47 187.759 130.462 187.706 130.433 187.658C129.92 186.793 130.155 185.676 130.157 185.665C130.182 185.552 130.11 185.439 129.997 185.414C129.885 185.389 129.77 185.461 129.745 185.575C129.735 185.626 129.484 186.795 130.021 187.79C129.955 187.949 129.731 188.289 129.068 188.155C128.952 188.132 128.843 188.207 128.819 188.32C128.796 188.433 128.87 188.545 128.983 188.569C129.117 188.596 129.241 188.608 129.354 188.608L129.358 188.606Z" fill="#EA907F"/>
<path d="M120.163 216.091C122.73 216.091 124.9 214.609 124.929 214.588C124.954 214.572 124.958 214.539 124.942 214.516C124.925 214.491 124.892 214.485 124.869 214.504C124.828 214.533 120.713 217.337 117.15 215.159C117.125 215.145 117.092 215.153 117.078 215.176C117.064 215.2 117.07 215.233 117.094 215.248C118.108 215.868 119.164 216.093 120.161 216.093L120.163 216.091Z" fill="#272035"/>
<path d="M138.867 214.467C138.867 214.467 146.306 221.637 151.721 220.765C157.138 219.893 165.949 219.038 165.949 219.038L161.486 216.093C161.486 216.093 153.717 214.046 150.866 213.475C148.016 212.905 144.475 208.857 144.475 208.857L138.867 214.469V214.467Z" fill="#F9A58F"/>
<path d="M165.072 226.894C144.388 227.97 128.492 245.619 129.567 266.317C130.642 287.015 148.281 302.921 168.965 301.845C189.65 300.769 205.546 283.12 204.47 262.422C203.395 241.724 185.757 225.818 165.072 226.894ZM169.311 292.066C154 292.861 140.942 281.087 140.147 265.767C139.352 250.446 151.119 237.38 166.43 236.584C181.741 235.789 194.799 247.563 195.594 262.884C196.389 278.204 184.622 291.27 169.311 292.066Z" fill="#91B5F8"/>
<path d="M169.615 215.42L159.4 215.952L160.16 230.553L170.374 230.021L169.615 215.42Z" fill="#91B5F8"/>
<path d="M189.13 219.714L179.65 215.872L174.165 229.423L183.645 233.265L189.13 219.714Z" fill="#91B5F8"/>
<path d="M204.532 231.613L197.348 224.328L186.948 234.598L194.132 241.882L204.532 231.613Z" fill="#91B5F8"/>
<path d="M213.52 247.12L208.943 237.967L195.877 244.508L200.453 253.661L213.52 247.12Z" fill="#91B5F8"/>
<path d="M133.625 271.492L133.094 261.272L118.503 262.032L119.034 272.252L133.625 271.492Z" fill="#91B5F8"/>
<path d="M215.342 267.243L214.811 257.022L200.22 257.783L200.751 268.003L215.342 267.243Z" fill="#91B5F8"/>
<path d="M147.006 235.173L156.037 230.368L149.178 217.459L140.147 222.264L147.006 235.173Z" fill="#91B5F8"/>
<path d="M137.463 244.839L143.854 236.848L132.446 227.713L126.055 235.703L137.463 244.839Z" fill="#91B5F8"/>
<path d="M132.406 257.202L136.01 247.624L122.336 242.473L118.732 252.051L132.406 257.202Z" fill="#91B5F8"/>
<path d="M174.066 298.638L163.852 299.17L164.611 313.77L174.825 313.238L174.066 298.638Z" fill="#91B5F8"/>
<path d="M186.935 294.059L177.904 298.864L184.764 311.773L193.794 306.968L186.935 294.059Z" fill="#91B5F8"/>
<path d="M196.479 284.39L190.088 292.38L201.495 301.515L207.886 293.525L196.479 284.39Z" fill="#91B5F8"/>
<path d="M201.535 272.028L197.932 281.606L211.606 286.757L215.209 277.179L201.535 272.028Z" fill="#91B5F8"/>
<path d="M144.813 309.517L154.293 313.359L159.778 299.808L150.298 295.966L144.813 309.517Z" fill="#91B5F8"/>
<path d="M129.41 297.623L136.594 304.908L146.993 294.639L139.809 287.354L129.41 297.623Z" fill="#91B5F8"/>
<path d="M120.42 282.113L124.996 291.266L138.063 284.724L133.486 275.571L120.42 282.113Z" fill="#91B5F8"/>
<path d="M106.981 214.096C106.913 214.467 104.761 226.395 106.429 229.204C107.16 230.437 113.329 232.611 122.307 232.555L121.74 229.427C121.74 229.427 113.001 226.408 112.732 225.299C112.153 222.914 113.799 215.291 113.799 215.291L106.981 214.094V214.096Z" fill="#F9A58F"/>
<path d="M164.086 214.508C164.086 214.508 165.04 218.187 165.571 218.119C166.104 218.05 166.016 215.033 166.034 215.079C166.053 215.124 166.665 218.25 167.402 218.407C168.139 218.564 167.882 215.097 167.882 215.097C167.882 215.097 168.24 218.073 168.751 218.151C169.262 218.23 169.229 215.345 169.429 215.336C169.626 215.328 169.468 217.811 170.096 217.937C170.724 218.063 171.084 214.572 170.512 214.127C169.939 213.681 169.371 214.157 169.371 214.157C169.371 214.157 168.329 213.517 167.766 213.879C167.766 213.879 166.125 213.568 165.847 214.258C165.847 214.258 164.646 213.422 164.086 214.506V214.508Z" fill="#F9A58F"/>
<path d="M127.672 225.406C128.176 225.892 126.696 227.654 126.661 227.696C126.698 227.696 129.155 227.724 129.917 227.617C130.683 227.51 132.102 227.665 132.226 228.221C132.347 228.767 128.753 229.027 128.634 229.037C128.741 229.039 131.785 229.134 132.005 229.614C132.223 230.095 128.321 230.564 128.203 230.579C128.283 230.579 130.605 230.531 131.503 230.649C131.674 230.672 131.793 230.698 131.836 230.735C132.104 230.96 131.828 231.315 130.642 231.628C130.304 231.716 129.958 231.782 129.635 231.83C128.877 231.941 128.251 231.953 128.172 231.955C128.236 231.96 128.675 231.984 129.179 232.019C129.859 232.067 130.656 232.135 130.811 232.199C131.089 232.312 131.389 232.675 129.585 232.955C128.135 233.18 125.268 233.202 123.163 232.774C122.646 232.669 122.177 232.537 121.783 232.374L121.757 230.414L121.742 229.431C121.742 229.431 122.026 229.2 122.449 228.874C123.291 228.217 124.679 227.17 125.41 226.807C126.506 226.261 127.163 224.92 127.674 225.412L127.672 225.406Z" fill="#F9A58F"/>
<path d="M417.502 288.731C417.502 288.731 393.217 240.391 482.301 212.876C482.301 212.876 474.46 308.64 417.502 288.731Z" fill="#7C9AF2"/>
<path d="M482.421 212.734L415.539 282.2C412.427 268.155 413.109 234.142 482.421 212.734Z" fill="#91B5F8"/>
<path d="M418.352 279.422C418.317 279.42 418.282 279.406 418.253 279.379C418.191 279.319 418.189 279.218 418.249 279.156L482.306 212.624C482.368 212.563 482.467 212.56 482.529 212.62C482.59 212.68 482.592 212.779 482.533 212.843L418.475 279.375C418.442 279.41 418.397 279.426 418.352 279.422Z" fill="#060633"/>
<path d="M448.971 247.623C448.893 247.619 448.831 247.557 448.825 247.476C448.818 247.39 448.884 247.316 448.971 247.309L474.557 245.539C474.642 245.529 474.718 245.599 474.724 245.685C474.73 245.772 474.664 245.846 474.578 245.852L448.991 247.623C448.991 247.623 448.977 247.623 448.971 247.623Z" fill="#060633"/>
<path d="M435.247 261.876C435.237 261.876 435.227 261.874 435.216 261.872C435.132 261.849 435.082 261.762 435.105 261.678L441.698 237.363C441.721 237.279 441.809 237.229 441.891 237.252C441.976 237.275 442.025 237.361 442.003 237.446L435.41 261.76C435.389 261.835 435.321 261.88 435.249 261.876H435.247Z" fill="#060633"/>
<path d="M416.092 287.383C416.092 287.383 422.384 242.808 496.336 266.247C496.336 266.247 445.61 328.014 416.092 287.383Z" fill="#91B5F8"/>
<path d="M496.336 266.247L416.092 287.383C416.092 287.383 438.255 330.409 496.336 266.247Z" fill="#7C9AF2"/>
<path d="M475.455 279.954C475.445 279.954 475.433 279.952 475.422 279.95L456.643 276.215C456.501 276.187 456.408 276.049 456.437 275.906C456.466 275.764 456.606 275.673 456.746 275.7L475.525 279.435C475.667 279.463 475.76 279.602 475.731 279.744C475.704 279.876 475.585 279.964 475.457 279.954H475.455Z" fill="#91B5F8"/>
<path d="M448.889 292.795C448.87 292.795 448.85 292.791 448.829 292.785L424.598 285.374C424.46 285.333 424.382 285.184 424.423 285.046C424.466 284.908 424.611 284.828 424.751 284.871L448.982 292.282C449.12 292.325 449.198 292.472 449.157 292.61C449.12 292.729 449.006 292.804 448.887 292.795H448.889Z" fill="#91B5F8"/>
<path d="M425.988 182.067H270.054C267.706 182.067 265.803 183.972 265.803 186.321V300.171C265.803 302.521 267.706 304.425 270.054 304.425H425.988C428.336 304.425 430.239 302.521 430.239 300.171V186.321C430.239 183.972 428.336 182.067 425.988 182.067Z" fill="#050521"/>
<path d="M426.531 186.342H269.512V303.18H426.531V186.342Z" fill="white"/>
<path d="M446.478 299.668H249.562V307.502H446.478V299.668Z" fill="#050521"/>
<path d="M423.438 188.825H272.605V296.171H423.438V188.825Z" fill="#E7EEFD"/>
<path d="M326.498 222.257V216.371H321.483C321.207 215.606 320.851 214.883 320.422 214.207L323.742 210.201L319.215 206.444L316.062 210.248C315.417 209.923 314.736 209.657 314.025 209.461V204.7H308.143V209.461C307.432 209.657 306.751 209.92 306.106 210.248L302.953 206.444L298.426 210.201L301.746 214.207C301.317 214.883 300.961 215.606 300.685 216.371H295.67V222.257H300.236C300.477 223.487 300.92 224.646 301.532 225.693L298.426 229.441L302.953 233.198L305.754 229.816C306.501 230.229 307.303 230.556 308.143 230.789V234.94H314.025V230.789C314.865 230.558 315.667 230.229 316.414 229.816L319.215 233.198L323.742 229.441L320.636 225.693C321.248 224.644 321.691 223.487 321.932 222.257H326.498ZM311.084 225.911C307.892 225.911 305.303 223.32 305.303 220.126C305.303 216.932 307.892 214.341 311.084 214.341C314.276 214.341 316.865 216.932 316.865 220.126C316.865 223.32 314.276 225.911 311.084 225.911Z" fill="#5887DB"/>
<path d="M341.266 271.914V264.281H334.762C334.404 263.289 333.943 262.35 333.386 261.474L337.693 256.276L331.819 251.404L327.729 256.34C326.89 255.918 326.007 255.573 325.086 255.32V249.146H317.458V255.32C316.537 255.573 315.651 255.918 314.815 256.34L310.725 251.404L304.851 256.276L309.157 261.474C308.601 262.35 308.138 263.289 307.782 264.281H301.277V271.914H307.201C307.512 273.512 308.088 275.012 308.881 276.372L304.851 281.236L310.725 286.108L314.36 281.722C315.33 282.258 316.368 282.683 317.458 282.983V288.369H325.086V282.983C326.176 282.683 327.216 282.258 328.184 281.722L331.819 286.108L337.693 281.236L333.662 276.372C334.455 275.012 335.032 273.512 335.343 271.914H341.266ZM321.272 276.654C317.13 276.654 313.775 273.295 313.775 269.151C313.775 265.006 317.132 261.649 321.272 261.649C325.412 261.649 328.771 265.008 328.771 269.151C328.771 273.293 325.414 276.654 321.272 276.654Z" fill="#FF7367"/>
<path d="M367.933 220.67C358.195 220.67 350.303 228.57 350.303 238.311C350.303 248.053 358.197 255.953 367.933 255.953C377.669 255.953 385.563 248.055 385.563 238.311C385.563 228.568 377.669 220.67 367.933 220.67ZM368.332 251.371C361.124 251.371 355.281 245.525 355.281 238.311C355.281 231.098 361.124 225.252 368.332 225.252C375.541 225.252 381.384 231.098 381.384 238.311C381.384 245.525 375.541 251.371 368.332 251.371Z" fill="#91B5F8"/>
<path d="M370.336 215.4H365.527V222.273H370.336V215.4Z" fill="#91B5F8"/>
<path d="M379.43 217.869L375.072 215.833L372.167 222.062L376.525 224.097L379.43 217.869Z" fill="#91B5F8"/>
<path d="M386.37 223.846L383.174 220.25L378.041 224.818L381.237 228.414L386.37 223.846Z" fill="#91B5F8"/>
<path d="M390.223 231.356L388.297 226.947L382.003 229.7L383.929 234.109L390.223 231.356Z" fill="#91B5F8"/>
<path d="M352.076 240.832V236.02H345.207V240.832H352.076Z" fill="#91B5F8"/>
<path d="M390.543 240.832V236.02H383.674V240.832H390.543Z" fill="#91B5F8"/>
<path d="M359.25 224.086L363.607 222.051L360.702 215.823L356.345 217.858L359.25 224.086Z" fill="#91B5F8"/>
<path d="M354.527 228.396L357.723 224.801L352.59 220.233L349.394 223.829L354.527 228.396Z" fill="#91B5F8"/>
<path d="M351.836 234.073L353.762 229.664L347.468 226.911L345.542 231.32L351.836 234.073Z" fill="#91B5F8"/>
<path d="M370.393 254.578H365.584V261.451H370.393V254.578Z" fill="#91B5F8"/>
<path d="M376.553 252.768L372.195 254.803L375.1 261.031L379.458 258.996L376.553 252.768Z" fill="#91B5F8"/>
<path d="M381.28 248.458L378.084 252.053L383.216 256.621L386.412 253.025L381.28 248.458Z" fill="#91B5F8"/>
<path d="M383.971 242.778L382.045 247.188L388.339 249.94L390.265 245.531L383.971 242.778Z" fill="#91B5F8"/>
<path d="M356.373 258.981L360.73 261.016L363.635 254.788L359.278 252.753L356.373 258.981Z" fill="#91B5F8"/>
<path d="M349.437 253.005L352.633 256.601L357.765 252.033L354.569 248.437L349.437 253.005Z" fill="#91B5F8"/>
<path d="M345.584 245.495L347.51 249.904L353.804 247.151L351.877 242.742L345.584 245.495Z" fill="#91B5F8"/>
<path d="M398.123 312.776L397.449 304.225L403.875 304.755L403.439 313.681C403.439 313.681 399.428 314.144 398.121 312.776H398.123Z" fill="white"/>
<path d="M403.514 312.669C403.514 312.669 401.398 313.499 398.124 312.776C398.124 312.776 388.536 316.187 388.664 319.031C388.664 319.031 388.19 319.847 392.493 319.932C396.795 320.016 403.474 320.241 403.66 320.152C403.845 320.063 405.546 319.058 403.514 312.669Z" fill="#010131"/>
<path d="M403.66 320.15C403.474 320.238 396.795 320.014 392.493 319.929C388.19 319.845 388.664 319.029 388.664 319.029C388.656 318.841 388.693 318.652 388.763 318.46L404.469 318.386C404.331 319.767 403.761 320.102 403.66 320.15Z" fill="white"/>
<path d="M372.619 312.776L374.178 303.801L380.503 304.93L377.766 313.227C377.766 313.227 373.927 314.142 372.621 312.776H372.619Z" fill="white"/>
<path d="M378.012 312.669C378.012 312.669 375.896 313.499 372.622 312.776C372.622 312.776 363.034 316.187 363.162 319.031C363.162 319.031 362.688 319.847 366.991 319.932C371.293 320.016 377.972 320.241 378.158 320.152C378.343 320.063 380.044 319.058 378.012 312.669Z" fill="#010131"/>
<path d="M378.158 320.15C377.972 320.238 371.293 320.014 366.991 319.929C362.688 319.845 363.162 319.029 363.162 319.029C363.154 318.841 363.191 318.652 363.261 318.46L378.967 318.386C378.829 319.767 378.259 320.102 378.158 320.15Z" fill="white"/>
<path d="M387.671 192.234C387.671 192.234 362.851 179.056 360.347 161.283L356.703 162.65C356.703 162.65 360.573 184.402 379.245 197.108L387.671 192.232V192.234Z" fill="#FF9391"/>
<path d="M411.276 212.319C411.276 212.319 412.439 206.586 408.392 235.179L398.661 224.126C398.661 224.126 397.604 212.356 398.002 211.536C398.399 210.716 400.951 204.387 401.696 203.89C402.442 203.394 405.008 202.272 405.008 202.272L411.276 212.319Z" fill="#FF7367"/>
<path d="M405.479 227.665C405.479 227.665 409.431 226.56 409.411 231.82C409.396 235.474 405.193 309.095 405.193 309.095L396.312 308.664L392.351 253.296L381.524 309.095H371.732L381.938 222.892L405.481 227.665H405.479Z" fill="#4250F0"/>
<path d="M396.125 190.299C396.125 190.299 392.772 189.614 389.879 189.635C387.79 189.649 381.752 187.428 380.308 186.801L375.223 197.131L385.14 204.603L407.577 212.923L409.991 218.395C409.991 218.395 420.804 215.907 420.674 215.656C420.544 215.402 415.525 198.728 412.959 196.294C409.142 192.675 396.128 190.301 396.128 190.301L396.125 190.299Z" fill="#FF7367"/>
<path d="M385.406 203.585L381.639 224.557C381.639 224.557 401.067 244.41 404.218 236.148C407.367 227.885 403.633 208.117 403.633 208.117L385.408 203.583L385.406 203.585Z" fill="#4250F0"/>
<path d="M411.634 218.011C411.634 218.011 412.998 223.772 412.353 225.105C411.709 226.439 401.223 229.295 396.727 228.131L396.225 231.263C396.225 231.263 414.864 236.656 419.459 228.545C419.459 228.545 421.98 225.387 419.397 216.097L411.634 218.011Z" fill="#FF9391"/>
<path d="M394.665 177.973C394.665 177.973 394.328 176.992 393.803 177.22C392.462 177.799 393.29 179.205 393.969 179.646L394.665 177.973Z" fill="#FF6868"/>
<path d="M395.216 174.823H395.222C395.24 174.737 395.261 174.648 395.284 174.56C396.297 170.638 400.416 168.344 404.323 169.634C407.579 170.708 409.606 174.046 409.058 177.433C408.854 178.69 408.339 179.801 407.612 180.713C406.568 182.146 405.66 183.368 404.778 184.351C403.32 185.977 402.455 188.048 402.268 190.227L402.121 191.939C397.354 193.087 395.98 190.517 395.98 190.517L396.68 187.486C396.771 187.09 396.544 186.694 396.157 186.566C396.155 186.566 396.153 186.566 396.149 186.564C391.039 184.881 394.608 177.167 395.214 174.823H395.216Z" fill="#FF9391"/>
<path d="M401.316 180.221C401.406 179.871 401.765 179.658 402.115 179.749C402.465 179.84 402.677 180.198 402.587 180.549C402.496 180.899 402.138 181.111 401.788 181.018C401.437 180.928 401.225 180.569 401.316 180.219V180.221Z" fill="#01011C"/>
<path d="M395.964 177.633C396.055 177.282 396.413 177.07 396.763 177.163C397.114 177.253 397.326 177.612 397.235 177.962C397.144 178.313 396.786 178.525 396.436 178.434C396.086 178.344 395.874 177.985 395.964 177.635V177.633Z" fill="#01011C"/>
<path d="M403.845 179.819C403.911 179.835 403.981 179.835 404.049 179.815C404.253 179.755 404.368 179.541 404.308 179.337C404.127 178.723 403.361 177.653 401.757 177.997C401.549 178.042 401.417 178.246 401.462 178.453C401.507 178.661 401.711 178.793 401.917 178.747C403.235 178.465 403.559 179.51 403.571 179.553C403.61 179.687 403.717 179.784 403.843 179.817L403.845 179.819Z" fill="#01011C"/>
<path d="M398.15 177.286C398.216 177.303 398.286 177.303 398.354 177.282C398.557 177.222 398.673 177.008 398.613 176.804C398.432 176.19 397.666 175.12 396.061 175.464C395.853 175.51 395.721 175.714 395.767 175.92C395.812 176.128 396.016 176.26 396.222 176.215C397.54 175.932 397.863 176.977 397.876 177.02C397.915 177.154 398.022 177.251 398.148 177.284L398.15 177.286Z" fill="#01011C"/>
<path d="M409.409 178.716L406.367 182.853L405.191 182.284L405.986 176.136L409.409 178.716Z" fill="#040156"/>
<path d="M405.038 182.088C405.205 181.896 405.442 181.777 405.693 181.744C406.214 181.676 407.098 181.682 407.52 182.401C408.142 183.457 405.882 185.241 404.503 183.708C404.503 183.708 404.15 183.108 405.038 182.088Z" fill="#FF9391"/>
<path d="M397.459 181.678C397.992 182.133 398.618 181.946 398.627 181.944C398.686 181.925 398.719 181.861 398.701 181.802C398.682 181.742 398.618 181.709 398.559 181.727C398.53 181.736 397.834 181.94 397.37 181.231C397.294 181.115 397.263 181.029 397.273 180.975C397.29 180.899 397.405 180.825 397.566 180.722C397.935 180.485 398.552 180.089 399.008 178.949C399.03 178.89 399.001 178.824 398.944 178.801C398.886 178.778 398.818 178.805 398.795 178.865C398.367 179.937 397.811 180.293 397.442 180.53C397.242 180.658 397.086 180.759 397.049 180.928C397.022 181.049 397.063 181.181 397.179 181.356C397.265 181.49 397.362 181.596 397.459 181.68V181.678Z" fill="#FF6868"/>
<path d="M399.72 183.498C399.72 183.498 397.049 183.147 395.605 181.958C395.605 181.958 395.498 184.056 396.96 184.604C398.425 185.153 399.718 183.5 399.718 183.5L399.72 183.498Z" fill="white"/>
<path d="M396.995 172.455C396.995 172.455 395.837 172.89 394.527 176.971C394.527 176.971 395.691 172.371 396.334 171.996C396.978 171.621 396.995 172.455 396.995 172.455Z" fill="#040156"/>
<path d="M409.904 177.222C410.265 177.284 410.732 177.298 410.895 176.969C411.025 176.705 410.864 176.4 410.742 176.13C410.092 174.679 410.631 172.826 409.729 171.518C409.078 170.576 407.787 170.106 407.431 169.018C407.299 168.614 407.305 168.14 407.021 167.82C406.833 167.61 406.553 167.509 406.281 167.435C405.474 167.214 404.625 167.153 403.793 167.25C403.491 167.285 403.184 167.342 402.881 167.293C402.401 167.217 402.008 166.887 401.579 166.654C400.98 166.326 400.269 166.182 399.602 166.324C398.935 166.466 398.323 166.918 398.057 167.546C397.965 167.765 397.909 168.008 397.75 168.187C397.633 168.319 397.47 168.404 397.31 168.474C396.904 168.651 396.473 168.77 396.035 168.828C395.547 168.892 395.005 168.896 394.64 169.226C394.364 169.477 394.257 169.863 394.222 170.234C394.161 170.868 394.307 171.575 394.803 171.977C395.304 172.381 396.004 172.371 396.644 172.416C397.285 172.464 398.016 172.655 398.278 173.243C398.383 173.478 398.395 173.743 398.49 173.982C398.69 174.485 399.225 174.78 399.756 174.881C400.288 174.982 400.834 174.93 401.373 174.959C403.629 175.079 405.068 176.495 406.131 178.333C406.584 179.116 407.538 180.289 408.582 180.006C409.762 179.687 410.03 178.249 409.904 177.218V177.222Z" fill="#040156"/>
<path d="M385.324 203.888C385.324 203.888 388.795 193.067 390.632 189.615L393.085 189.831C393.085 189.831 388.622 200.063 388.117 204.603L385.326 203.888H385.324Z" fill="#4250F0"/>
<path d="M403.63 208.119C403.63 208.119 405.611 197.992 408.707 193.825L406.046 192.838C406.046 192.838 401.323 202.18 400.592 208.531L403.63 208.119Z" fill="#4250F0"/>
<path d="M402.124 210.51L387.453 207.384L384.994 218.937L391.605 223.898L399.665 222.063L402.124 210.51Z" fill="#1737E9"/>
<path d="M389.96 224.984C389.625 225.085 389.27 224.893 389.171 224.557L385.13 210.986C385.03 210.65 385.221 210.296 385.557 210.197C385.893 210.096 386.247 210.287 386.346 210.623L390.387 224.194C390.487 224.53 390.296 224.885 389.96 224.984Z" fill="#E7EEFD"/>
<path d="M389.248 222.867L389.41 222.818C390.46 222.505 391.567 223.104 391.88 224.155L395.211 235.335C395.524 236.386 394.926 237.494 393.876 237.807L393.714 237.855C392.664 238.168 391.557 237.569 391.244 236.519L387.913 225.338C387.6 224.288 388.198 223.18 389.248 222.867Z" fill="#E25F59"/>
<path d="M398.411 228.759C398.411 228.759 394.588 226.624 393.375 226.086C392.162 225.548 391.383 224.126 390.854 224.685C390.325 225.243 392.061 227.117 392.061 227.117C392.061 227.117 389.365 227.269 388.531 227.189C387.695 227.108 387.559 227.562 388.018 227.852C388.539 228.182 389.995 228.662 389.995 228.662C389.995 228.662 388.362 228.333 388.146 228.873C387.929 229.413 390.537 230.311 390.537 230.311C390.537 230.311 388.735 229.996 388.455 230.251C388.174 230.509 387.824 231.201 389.124 231.484C390.423 231.766 390.644 231.799 390.644 231.799C390.644 231.799 389.659 231.801 389.363 231.939C389.066 232.077 388.803 232.819 390.774 233.034C392.743 233.248 395.954 232.72 398.073 231.727L398.413 228.757L398.411 228.759Z" fill="#FF9391"/>
<path d="M360.435 154.336C359.751 154.185 359.104 156.393 359.088 156.444C359.065 156.413 357.683 154.381 357.351 153.687C357.018 152.988 356.101 151.892 355.572 152.096C355.051 152.296 356.822 155.436 356.88 155.542C356.818 155.453 355.055 152.967 354.534 153.05C354.013 153.132 355.782 156.648 355.836 156.753C355.792 156.685 354.546 154.725 353.953 154.041C353.84 153.911 353.751 153.827 353.698 153.81C353.362 153.711 353.22 154.138 353.615 155.3C353.727 155.63 353.865 155.956 354.003 156.25C354.328 156.943 354.664 157.473 354.707 157.541C354.67 157.489 354.406 157.137 354.095 156.735C353.679 156.195 353.183 155.568 353.043 155.474C352.794 155.305 352.326 155.253 353.092 156.914C353.708 158.247 354.785 160.473 356.151 162.132C356.812 162.936 356.865 163.958 357.067 164.29L359.541 162.033L360.367 161.502C360.367 161.502 360.402 161.137 360.441 160.605C360.521 159.54 360.626 157.802 360.523 156.992C360.371 155.776 361.125 154.486 360.433 154.332L360.435 154.336Z" fill="#FF9391"/>
<path d="M289.494 132.973C289.494 136.221 288.165 139.176 286.025 141.318C283.885 143.457 280.932 144.786 277.686 144.786H138.356C131.862 144.786 126.551 139.471 126.551 132.973C126.551 129.723 127.879 126.77 130.017 124.628C132.157 122.487 135.11 121.16 138.356 121.16H277.686C284.18 121.16 289.494 126.475 289.494 132.975V132.973Z" fill="#B8D0FC"/>
<path d="M289.494 132.973C289.494 136.221 288.165 139.176 286.026 141.317C283.886 143.456 280.932 144.786 277.686 144.786H254.967V121.157H277.686C284.18 121.157 289.494 126.473 289.494 132.973Z" fill="#6D76FF"/>
<path d="M274.292 136.458C274.008 136.458 273.722 136.437 273.435 136.394C271.924 136.169 270.591 135.367 269.683 134.139C267.807 131.602 268.342 128.012 270.877 126.134C273.413 124.257 277.001 124.793 278.877 127.33C280.753 129.867 280.218 133.457 277.682 135.334C276.687 136.072 275.507 136.46 274.292 136.46V136.458ZM271.438 126.891C269.32 128.459 268.873 131.46 270.441 133.578C271.201 134.605 272.313 135.275 273.575 135.462C274.836 135.65 276.096 135.336 277.124 134.576C279.241 133.008 279.688 130.007 278.121 127.888C276.554 125.77 273.555 125.322 271.438 126.891Z" fill="#060423"/>
<path d="M270.328 134.239L269.768 133.482L263.494 138.129L264.054 138.886L270.328 134.239Z" fill="#060423"/>
<path d="M261.606 140.122C261.33 139.749 261.409 139.221 261.781 138.945L265.476 136.208C265.849 135.932 266.376 136.01 266.652 136.383C266.928 136.756 266.85 137.284 266.477 137.56L262.782 140.297C262.41 140.573 261.882 140.495 261.606 140.122Z" fill="#060423"/>
<path d="M239.969 154.977H144.598V161.102H239.969V154.977Z" fill="#FF5150"/>
<g opacity="0.5">
<path d="M213.182 166.499H144.598V169.562H213.182V166.499Z" fill="#FF5150"/>
<path d="M253.377 166.499H220.422V169.562H253.377V166.499Z" fill="#FF5150"/>
<path d="M191.472 175.145H144.598V178.207H191.472V175.145Z" fill="#FF5150"/>
<path d="M232.008 175.145H196.42V178.207H232.008V175.145Z" fill="#FF5150"/>
</g>
<path d="M342.304 136.458H402.352C406.372 136.458 408.708 131.891 406.368 128.606L375.513 85.3081C373.511 82.4991 369.337 82.5526 367.409 85.4132L338.214 128.711C335.992 132.006 338.342 136.458 342.302 136.458H342.304Z" fill="white"/>
<path d="M246.878 208.956L232.255 212.363L225.024 225.528L219.502 195.521L246.878 208.956Z" fill="#100259"/>
<path d="M231.457 209.491L229.326 211.107L238.667 223.443L240.798 221.828L231.457 209.491Z" fill="#100259"/>
<path d="M346.754 133.269H397.62C401.024 133.269 403.004 129.415 401.022 126.646L374.886 90.1223C373.191 87.7523 369.655 87.7997 368.021 90.2109L343.292 126.734C341.409 129.514 343.399 133.269 346.756 133.269H346.754Z" fill="#FF5150"/>
<path d="M369.866 126.26C369.477 126.021 369.281 125.644 369.281 125.123V124.408C369.281 123.866 369.471 123.482 369.85 123.253C370.229 123.027 370.828 122.911 371.652 122.911H372.69C373.512 122.911 374.119 123.031 374.509 123.268C374.898 123.507 375.093 123.886 375.093 124.405V125.121C375.093 125.64 374.898 126.019 374.509 126.258C374.119 126.497 373.514 126.615 372.69 126.615H371.652C370.851 126.615 370.255 126.495 369.866 126.258V126.26ZM370.078 120.3C369.829 120.073 369.706 119.721 369.706 119.245L369.51 105.958C369.51 105.46 369.619 105.097 369.835 104.87C370.052 104.643 370.43 104.528 370.972 104.528H373.44C373.979 104.528 374.358 104.641 374.576 104.87C374.793 105.097 374.902 105.46 374.902 105.958L374.675 119.245C374.675 119.721 374.55 120.073 374.303 120.3C374.053 120.527 373.658 120.64 373.118 120.64H371.267C370.725 120.64 370.33 120.527 370.082 120.3H370.078Z" fill="#E7EEFD"/>
</svg>
